<?xml version="1.0" encoding="utf-8"?>
<!-- Generator: Adobe Illustrator 19.0.0, SVG Export Plug-In . SVG Version: 6.00 Build 0)  -->
<svg version="1.1" id="Warstwa_1" xmlns="http://www.w3.org/2000/svg" xmlns:xlink="http://www.w3.org/1999/xlink" x="0px" y="0px"
	 viewBox="0 0 30 30" style="enable-background:new 0 0 30 30;" xml:space="preserve">
<style type="text/css">
	.st0{fill:#4D63CF;}
</style>
<path id="XMLID_457_" class="st0" d="M-39.1,23.5h-7.8v-7.9h-15.6V7.8h7.6V0h7.9v-7.9h7.8v-7.9h15.7v-7.7h47v7.6h15.6V-8h7.9v7.8
	h7.9v7.9h7.7v7.9H47.1v8H23.6v-7.8H7.9v7.5H-7.7v-7.5h-15.6v7.7h-7.9L-39.1,23.5z M-31.5,7.7V0h-7.5v7.6H-31.5z M-15.5,7.5h7.6V0
	h-7.6V7.5z M8,0v7.6h7.5V0H8z M31.5,0v7.5h7.5V0H31.5z"/>
</svg>
