<?xml version="1.0" encoding="utf-8"?>
<!-- Generator: Adobe Illustrator 19.0.0, SVG Export Plug-In . SVG Version: 6.00 Build 0)  -->
<svg version="1.1" id="Warstwa_1" xmlns="http://www.w3.org/2000/svg" xmlns:xlink="http://www.w3.org/1999/xlink" x="0px" y="0px"
	 viewBox="0 0 408 378" style="enable-background:new 0 0 408 378;" xml:space="preserve">
<style type="text/css">
	.st0{fill:#6A50B6;}
	.st1{fill:#CF7EF9;}
	.st2{fill:#2F286C;}
	.st3{fill:#231E59;}
	.st4{fill:#1A164A;}
	.st5{fill:#4D63CF;}
	.st6{fill:#3D50C2;}
	.st7{fill:#3042B8;}
	.st8{fill:#5740A6;}
	.st9{fill:#483398;}
	.st10{fill:#ECFCFC;}
	.st11{fill:#6CCEF3;}
	.st12{fill:#FF0000;}
	.st13{fill:#41A6E9;}
	.st14{fill:#9EEEFC;}
	.st15{fill:#0949B8;}
	.st16{fill:#072385;}
	.st17{fill:#2B1554;}
	.st18{fill:#200F43;}
	.st19{fill:#110828;}

	.st20{fill:#0949B8;}
	.st21{fill:#00369F;}
	.st22{fill:#8AE2F3;}
	.st23{fill:#0949B8;}
	.st24{fill:#BAF9FC;}
	.st25{fill:#64CCEB;}

</style>
<polygon id="XMLID_454_" class="st0" points="300,270.9 307.4,244 314.6,270.9 "/>
<g id="XMLID_452_">
	<path id="XMLID_453_" class="st1" d="M307.3,279.5L307.3,279.5c-0.5,0-0.9-0.4-0.9-0.9l0-11c0-0.5,0.4-0.9,0.9-0.9l0,0
		c0.5,0,0.9,0.4,0.9,0.9l0,11C308.3,279.1,307.8,279.5,307.3,279.5z"/>
</g>
<path id="XMLID_18_" class="st2" d="M371.9,378.2c0.1-70-65.8-128-165.2-127.6c-114.7,0.5-160.9,56.6-161,126.6c0,0.2,0-0.4,0,0.6
	L371.9,378.2z"/>
<path id="XMLID_19_" class="st3" d="M371.9,378.2c0-27-9.6-51.9-26.9-72.5c-35.5-18.9-83-30.4-138.8-30.2
	c-58.7,0.2-103.2,9.5-135.4,25.2c-17.1,21.1-24.9,47.7-25,76.4c0,0.2,0-0.3,0,0.7L371.9,378.2z"/>
<path id="XMLID_3_" class="st4" d="M354.9,378.2c-4-8-9-15.5-14.8-22.4c-35.5-18.9-83-30.4-138.8-30.2
	c-58.7,0.2-103.2,9.7-135.4,25.4c-6.6,8.2-11.8,16.9-15.8,26.9L354.9,378.2z"/>
<path id="XMLID_5_" class="st5" d="M144.4,377.9c-7.4-51-29-88.7-68.4-85.8c-34.5,2.5-64.5,36.7-76,85.6L144.4,377.9z"/>
<path id="XMLID_6_" class="st6" d="M144.4,377.9c-1.5-11-3.7-20.5-6.4-29.7c-14.3-18-34.3-28.6-60.8-27
	c-28.6,1.7-54.8,17.8-73.3,42.6c-1.5,4.4-2.7,8.9-3.9,13.9L144.4,377.9z"/>
<path id="XMLID_11_" class="st7" d="M142.6,377.9c-14-16-33-24.4-57.5-23c-20.1,1.2-39,8.9-54.9,22.8L142.6,377.9z"/>
<path id="XMLID_12_" class="st0" d="M407.5,378.3c-22.1-38-57.5-64.5-95-63.9c-39.5,0.6-89.8,25.7-119,63.7L407.5,378.3z"/>
<path id="XMLID_15_" class="st8" d="M407.5,378.3c-5-9-10.7-16.5-16.9-23.7c-22.5-12.1-47.8-19.4-73.9-19.1
	c-35.5,0.4-77.5,12-113.1,30.7c-3.6,3.7-6.9,7.8-10,11.8L407.5,378.3z"/>
<path id="XMLID_14_" class="st9" d="M338.9,378.2c-21.2-11-44.7-16.7-69-16.4c-25.2,0.3-53.7,5.3-80.9,16.2L338.9,378.2z"/>
<polygon id="XMLID_409_" class="st0" points="68.6,283.9 85.1,229.9 101.5,283.9 "/>
<path id="XMLID_398_" class="st1" d="M85,297.6L85,297.6c-1,0-1.7-0.8-1.7-1.8l0-23.2c0-1,0.8-1.7,1.8-1.7l0,0c1,0,1.7,0.8,1.7,1.8
	l0,23.2C86.8,296.9,86,297.6,85,297.6z M89.1,264l2.8-2.9c0.3-0.4,0.3-0.9,0-1.3l0,0c-0.4-0.3-0.9-0.3-1.3,0l-2.8,2.9
	c-0.3,0.4-0.3,0.9,0,1.3l0,0C88.2,264.4,88.8,264.4,89.1,264z M82.4,262.7l-2.8-2.9c-0.3-0.4-0.9-0.4-1.3,0l0,0
	c-0.4,0.3-0.4,0.9,0,1.3l2.8,2.9c0.3,0.4,0.9,0.4,1.3,0l0,0C82.7,263.6,82.7,263.1,82.4,262.7z M92.2,274.8l2.8-2.9
	c0.3-0.4,0.3-0.9,0-1.3l0,0c-0.4-0.3-0.9-0.3-1.3,0l-2.8,2.9c-0.3,0.4-0.3,0.9,0,1.3l0,0C91.3,275.2,91.8,275.2,92.2,274.8z
	 M79.3,273.5l-2.8-2.9c-0.3-0.4-0.9-0.4-1.3,0l0,0c-0.4,0.3-0.4,0.9,0,1.3l2.8,2.9c0.3,0.4,0.9,0.4,1.3,0l0,0
	C79.6,274.5,79.6,273.9,79.3,273.5z M87.8,252.5l2.2-3.3c0.3-0.4,0.2-1-0.3-1.2l0,0c-0.4-0.3-1-0.2-1.2,0.3l-2.2,3.3
	c-0.3,0.4-0.2,1,0.3,1.2l0,0C86.9,253,87.5,252.9,87.8,252.5z M84,251.5l-2.2-3.4c-0.3-0.4-0.8-0.5-1.2-0.3l0,0
	c-0.4,0.3-0.5,0.8-0.3,1.2l2.2,3.4c0.3,0.4,0.8,0.5,1.2,0.3l0,0C84.1,252.4,84.2,251.9,84,251.5z"/>
<polygon id="XMLID_396_" class="st1" points="51.5,303.2 68.1,251.6 84.5,303.2 "/>
<path id="XMLID_384_" class="st10" d="M68,314.9L68,314.9c-1,0-1.7-0.8-1.7-1.8l0-21.2c0-1,0.8-1.7,1.8-1.7h0c1,0,1.7,0.8,1.7,1.8
	l0,21.2C69.8,314.2,69,315,68,314.9z M76.6,297.1l2.8-2.8c0.4-0.4,0.4-0.9,0-1.3l0,0c-0.4-0.4-0.9-0.4-1.3,0l-2.8,2.8
	c-0.4,0.4-0.4,0.9,0,1.3l0,0C75.7,297.4,76.2,297.4,76.6,297.1z M73.7,287.9l2.8-2.8c0.4-0.4,0.4-0.9,0-1.3l0,0
	c-0.4-0.4-0.9-0.4-1.3,0l-2.8,2.8c-0.4,0.4-0.4,0.9,0,1.3l0,0C72.8,288.3,73.4,288.3,73.7,287.9z M71.5,277.8l2.8-2.8
	c0.4-0.4,0.4-0.9,0-1.3l0,0c-0.4-0.4-0.9-0.4-1.3,0l-2.8,2.8c-0.4,0.4-0.4,0.9,0,1.3l0,0C70.6,278.1,71.1,278.1,71.5,277.8z
	 M61,297.1L61,297.1c0.4-0.4,0.4-1,0-1.3l-2.8-2.8c-0.4-0.4-0.9-0.4-1.3,0l0,0c-0.4,0.4-0.4,0.9,0,1.3l2.8,2.8
	C60.1,297.4,60.6,297.4,61,297.1z M63.3,287.9L63.3,287.9c0.4-0.4,0.4-1,0-1.3l-2.8-2.8c-0.4-0.4-0.9-0.4-1.3,0l0,0
	c-0.4,0.4-0.4,0.9,0,1.3l2.8,2.8C62.4,288.2,63,288.2,63.3,287.9z M66.1,277.8L66.1,277.8c0.4-0.4,0.4-1,0-1.3l-2.8-2.8
	c-0.4-0.4-0.9-0.4-1.3,0l0,0c-0.4,0.4-0.4,0.9,0,1.3l2.8,2.8C65.1,278.1,65.7,278.1,66.1,277.8z"/>
<path id="XMLID_684_" class="st11" d="M140,251.3c0-28.4,23.1-51.3,51.4-51.3s51.3,23.1,51.3,51.4L140,251.3z"/>
<rect id="XMLID_7_" x="150.7" y="111.3" class="st12" width="81.7" height="200"/>
<path id="XMLID_661_" class="st13" d="M219.1,208.1c15.7,15.1,17.7,37.4,17.7,37.4s-79.5-0.1-89.5-0.1c1.1-14.9,9.8-28.6,17.5-38
	c-14.8,9-24.8,25.3-24.8,43.9l102.7,0.1C242.8,233.2,233.3,217.3,219.1,208.1z"/>
<path id="XMLID_2_" class="st14" d="M174.9,219.6c-0.6,4.2-3.4,7.9-6.2,8.2c-2.8,0.3-4.6-2.9-4-7.2c0.6-4.2,3.4-7.9,6.2-8.2
	S175.5,215.3,174.9,219.6z M179.4,223.9c-1.7,0.2-3.3,1.9-3.6,3.9c-0.3,2,0.9,3.4,2.6,3.2c1.7-0.2,3.3-1.9,3.6-3.9
	C182.2,225.1,181.1,223.7,179.4,223.9z M212.2,213.6c3-0.6,6.4,1.4,7.5,4.4c1.1,3-0.4,6-3.4,6.6c-3,0.6-6.4-1.4-7.5-4.4
	C207.7,217.1,209.2,214.2,212.2,213.6z"/>
<rect id="XMLID_683_" x="140" y="251.1" transform="matrix(1 1.308805e-03 -1.308805e-03 1 0.3403 -0.2503)" class="st15" width="102.7" height="17.6"/>
<path id="XMLID_1_" class="st16" d="M145.8,263.9L145.8,263.9c-0.9,0-1.6-0.7-1.6-1.6l0-5.6c0-0.9,0.7-1.6,1.6-1.6l0,0
	c0.9,0,1.6,0.7,1.6,1.6l0,5.6C147.5,263.2,146.7,263.9,145.8,263.9z M159.9,261.7l0-4.5c0-1.2-1-2.2-2.2-2.2l0,0
	c-1.2,0-2.2,1-2.2,2.2l0,4.5c0,1.2,1,2.2,2.2,2.2l0,0C158.9,263.9,159.9,262.9,159.9,261.7z M175.9,261.1l0-3.2
	c0-1.5-1.3-2.8-2.8-2.8l0,0c-1.5,0-2.8,1.3-2.8,2.8l0,3.2c0,1.5,1.3,2.8,2.8,2.8l0,0C174.6,263.9,175.9,262.7,175.9,261.1z
	 M236.5,255.2L236.5,255.2c0.9,0,1.6,0.7,1.6,1.6l0,5.6c0,0.9-0.7,1.6-1.6,1.6h0c-0.9,0-1.6-0.7-1.6-1.6l0-5.6
	C234.9,255.9,235.6,255.2,236.5,255.2z M226.9,261.8l0-4.5c0-1.2-1-2.2-2.2-2.2l0,0c-1.2,0-2.2,1-2.2,2.2l0,4.5c0,1.2,1,2.2,2.2,2.2
	h0C225.9,264,226.9,263,226.9,261.8z M212.1,261.2l0-3.2c0-1.5-1.3-2.8-2.8-2.8l0,0c-1.5,0-2.8,1.3-2.8,2.8l0,3.2
	c0,1.5,1.3,2.8,2.8,2.8h0C210.8,264,212.1,262.7,212.1,261.2z M194.6,261.1l0-3.2c0-1.5-1.3-2.8-2.8-2.8l0,0c-1.5,0-2.8,1.3-2.8,2.8
	l0,3.2c0,1.5,1.3,2.8,2.8,2.8h0C193.4,264,194.6,262.7,194.6,261.1z"/>
<path id="XMLID_682_" class="st17" d="M140,267l0,31.2l0.2,0c2,7.5,24.1,11.3,51.2,11.4s49.2-3.7,51.2-11.3l0.2,0l0-31.2L140,267z"
	/>
<path id="XMLID_660_" class="st18" d="M191.4,283.7c-19.2,0-37-2.9-51.4-10.2l0,24.6l0.2,0c2,7.5,24.1,11.3,51.2,11.4
	s49.2-3.7,51.2-11.3l0.2,0l0-24.6C228.3,281,210.6,283.8,191.4,283.7z"/>
<path id="XMLID_668_" class="st19" d="M221,307.7c-3.9,0.6-8.3,1-13,1.4c0,0,0-0.1,0-0.1c0-9.7,2.9-20.6,6.5-20.6
	C218,288.3,220.8,298.3,221,307.7z M232.8,284.9c-3.3,0-6,10.9-6,20.6c0,0.4,0,0.7,0,1.1c5.1-1.1,9.1-2.4,11.9-4.1c0,0,0,0,0,0
	C238.3,293.7,235.8,284.9,232.8,284.9z M195.2,309.5c1.1,0,2.1,0,3.2-0.1h0c-0.1-9.7-3.2-20.3-7.2-20.3c-3.9,0-7.1,10.6-7.2,20.3
	c1.1,0,2.1,0.1,3.2,0.1c0.2,0,0.5,0,0.7,0c1.1,0,2.2,0,3.3,0c1.1,0,2.2,0,3.3,0C194.8,309.5,195,309.5,195.2,309.5z M161.4,307.6
	c3.9,0.6,8.3,1.1,13,1.4c0,0,0-0.1,0-0.1c0-9.7-2.9-20.6-6.5-20.6C164.4,288.3,161.6,298.2,161.4,307.6z M143.7,302.4L143.7,302.4
	c2.7,1.7,6.8,3,11.9,4.1c0-0.4,0-0.7,0-1.1c0-9.7-2.7-20.6-6-20.6C146.7,284.8,144.2,293.6,143.7,302.4z"/>

	  <ellipse id="dome-right-circle" class="purple" cy="40.5" />
  <rect id="dome-center-rect" class="purple" y="0" height="40.5" />
  <ellipse id="dome-left-circle" class="st0" cy="40.5" />
  

  <g id="observator-pipe" >
    <path id="XMLID_613_" class="st20" d="M25.9,55h-8.4c-4.9,0-9-3.8-9.3-8.7L0,2.6C-0.1,1.2,1,0,2.4,0h38.3C42,0,43.1,1.2,43,2.5
    l-7.8,43.7C34.9,51.1,30.8,55,25.9,55z"/>
    <path id="XMLID_612_" class="st21" d="M21.2,39.5c-5.5,0-10.7-1.8-15.2-4.8l2.2,11.6c0.4,4.9,4.4,8.7,9.3,8.7h8.4
    c4.9,0,9-3.9,9.3-8.8L37.4,34C32.7,37.5,27.2,39.5,21.2,39.5z"/>
  </g>
  
      <g id="observator-eye">
        <circle id="XMLID_607_" class="st22" cx="22.2" cy="22.3" r="22.2"/>
        <path id="XMLID_587_" class="st23" d="M34,15.4c-7.3-5.3-15.8-5.3-23.1,0c0,0-8.7,6.6-8.9,6.9c0.2,0.3,8.9,6.9,8.9,6.9
          c7.3,5.3,15.8,5.3,23.1,0c0,0,8.6-6.5,8.9-6.9C42.4,21.8,34,15.4,34,15.4z M22.4,26.8c-2.5,0-4.5-2-4.5-4.5s2-4.5,4.5-4.5
          s4.5,2,4.5,4.5S24.9,26.8,22.4,26.8z"/>
        <path id="XMLID_620_" class="st24" d="M33.8,5c0.9,0,1.8,0,2.7,0.1C32.6,1.9,27.6,0,22.2,0C10.3,0,0.6,9.4,0,21.1
          C6.7,11.5,19.3,5,33.8,5z"/>
        <path id="XMLID_618_" class="st25" d="M11.1,40c-0.8,0-1.6,0-2.3-0.1c3.7,2.9,8.4,4.6,13.5,4.6c11.5,0,21-8.8,22.1-20
          C37.6,33.8,25.2,40,11.1,40z"/>
      </g>


</svg>
