<?xml version="1.0" encoding="utf-8"?>
<!-- Generator: Adobe Illustrator 19.0.0, SVG Export Plug-In . SVG Version: 6.00 Build 0)  -->
<svg version="1.1" id="Warstwa_1" xmlns="http://www.w3.org/2000/svg" xmlns:xlink="http://www.w3.org/1999/xlink" x="0px" y="0px"
	 viewBox="0 0 1024 768" style="enable-background:new 0 0 1024 768;" xml:space="preserve">
<style type="text/css">
	.st0{fill:#8AE2F3;}
	.st1{fill:#0949B8;}
	.st2{fill:#BAF9FC;}
	.st3{fill:#64CCEB;}
</style>
<circle id="XMLID_607_" class="st0" cx="22.2" cy="22.3" r="22.2"/>
<path id="XMLID_587_" class="st1" d="M34,15.4c-7.3-5.3-15.8-5.3-23.1,0c0,0-8.7,6.6-8.9,6.9c0.2,0.3,8.9,6.9,8.9,6.9
	c7.3,5.3,15.8,5.3,23.1,0c0,0,8.6-6.5,8.9-6.9C42.4,21.8,34,15.4,34,15.4z M22.4,26.8c-2.5,0-4.5-2-4.5-4.5s2-4.5,4.5-4.5
	s4.5,2,4.5,4.5S24.9,26.8,22.4,26.8z"/>
<path id="XMLID_620_" class="st2" d="M33.8,5c0.9,0,1.8,0,2.7,0.1C32.6,1.9,27.6,0,22.2,0C10.3,0,0.6,9.4,0,21.1
	C6.7,11.5,19.3,5,33.8,5z"/>
<path id="XMLID_618_" class="st3" d="M11.1,40c-0.8,0-1.6,0-2.3-0.1c3.7,2.9,8.4,4.6,13.5,4.6c11.5,0,21-8.8,22.1-20
	C37.6,33.8,25.2,40,11.1,40z"/>
</svg>
