<?xml version="1.0" encoding="utf-8"?>
<!-- Generator: Adobe Illustrator 19.0.0, SVG Export Plug-In . SVG Version: 6.00 Build 0)  -->
<svg version="1.1" id="Warstwa_1" xmlns="http://www.w3.org/2000/svg" xmlns:xlink="http://www.w3.org/1999/xlink" x="0px" y="0px"
	 viewBox="0 0 1024 768" style="enable-background:new 0 0 1024 768;" xml:space="preserve">
<style type="text/css">
	.st0{fill:#0949B8;}
	.st1{fill:#00369F;}
</style>
<path id="XMLID_613_" class="st0" d="M25.9,55h-8.4c-4.9,0-9-3.8-9.3-8.7L0,2.6C-0.1,1.2,1,0,2.4,0h38.3C42,0,43.1,1.2,43,2.5
	l-7.8,43.7C34.9,51.1,30.8,55,25.9,55z"/>
<path id="XMLID_612_" class="st1" d="M21.2,39.5c-5.5,0-10.7-1.8-15.2-4.8l2.2,11.6c0.4,4.9,4.4,8.7,9.3,8.7h8.4
	c4.9,0,9-3.9,9.3-8.8L37.4,34C32.7,37.5,27.2,39.5,21.2,39.5z"/>
</svg>
