<?xml version="1.0" encoding="utf-8"?>
<!-- Generator: Adobe Illustrator 19.0.0, SVG Export Plug-In . SVG Version: 6.00 Build 0)  -->
<svg version="1.1" id="Warstwa_1" xmlns="http://www.w3.org/2000/svg" xmlns:xlink="http://www.w3.org/1999/xlink" x="0px" y="0px"
	 viewBox="0 0 30 30" style="enable-background:new 0 0 30 30;" xml:space="preserve">
<style type="text/css">
	.star0{opacity:0.5;}
	.star1{fill:none;}
	.star2{fill:none;stroke:#FFFFFF;stroke-width:0.7586;stroke-miterlimit:10;}
	.star3{fill:none;stroke:#FFFFFF;stroke-width:0.5154;stroke-miterlimit:10;}
	.star4{fill:none;stroke:#FFFFFF;stroke-width:0.4807;stroke-miterlimit:10;}
	.star5{fill:none;stroke:#FFFFFF;stroke-width:1.0204;stroke-miterlimit:10;}
	.star6{fill:none;stroke:#FFFFFF;stroke-width:1.0046;stroke-miterlimit:10;}
	.star7{fill:none;stroke:#FFFFFF;stroke-width:0.5791;stroke-miterlimit:10;}
	.star8{fill:none;stroke:#FFFFFF;stroke-width:0.6408;stroke-miterlimit:10;}
	.star9{fill:none;stroke:#FFFFFF;stroke-width:0.9924;stroke-miterlimit:10;}
	.star10{fill:none;stroke:#FFFFFF;stroke-width:1.1755;stroke-miterlimit:10;}
	.star11{fill:none;stroke:#FFFFFF;stroke-width:0.9098;stroke-miterlimit:10;}
	.star12{fill:none;stroke:#FFFFFF;stroke-width:0.808;stroke-miterlimit:10;}
	.star13{fill:none;stroke:#FFFFFF;stroke-width:1.1186;stroke-miterlimit:10;}
	.star14{fill:none;stroke:#FFFFFF;stroke-width:1.1341;stroke-miterlimit:10;}
	.star15{fill:none;stroke:#FFFFFF;stroke-width:1.09;stroke-miterlimit:10;}
	.star16{fill:none;stroke:#FFFFFF;stroke-width:1.1714;stroke-miterlimit:10;}
	.star17{fill:none;stroke:#FFFFFF;stroke-width:0.675;stroke-miterlimit:10;}
	.star18{fill:none;stroke:#FFFFFF;stroke-width:1.1506;stroke-miterlimit:10;}
	.star19{fill:none;stroke:#FFFFFF;stroke-width:0.8629;stroke-miterlimit:10;}
	.star20{fill:none;stroke:#FFFFFF;stroke-width:1.1226;stroke-miterlimit:10;}
	.star21{fill:none;stroke:#FFFFFF;stroke-width:0.5417;stroke-miterlimit:10;}
	.star22{fill:none;stroke:#FFFFFF;stroke-width:0.7839;stroke-miterlimit:10;}
	.star23{fill:none;stroke:#FFFFFF;stroke-width:0.8544;stroke-miterlimit:10;}
	.star24{fill:none;stroke:#FFFFFF;stroke-width:0.4837;stroke-miterlimit:10;}
	.star25{fill:none;stroke:#FFFFFF;stroke-width:0.4979;stroke-miterlimit:10;}
	.star26{fill:none;stroke:#FFFFFF;stroke-width:0.7159;stroke-miterlimit:10;}
	.star27{fill:none;stroke:#FFFFFF;stroke-width:1.2079;stroke-miterlimit:10;}
	.star28{fill:none;stroke:#FFFFFF;stroke-width:0.648;stroke-miterlimit:10;}
	.star29{fill:none;stroke:#FFFFFF;stroke-width:0.8595;stroke-miterlimit:10;}
	.star30{fill:none;stroke:#FFFFFF;stroke-width:1.2086;stroke-miterlimit:10;}
	.star31{fill:none;stroke:#FFFFFF;stroke-width:1.1846;stroke-miterlimit:10;}
	.star32{fill:none;stroke:#FFFFFF;stroke-width:1.0289;stroke-miterlimit:10;}
	.star33{fill:none;stroke:#FFFFFF;stroke-width:0.6323;stroke-miterlimit:10;}
	.star34{fill:none;stroke:#FFFFFF;stroke-width:0.4516;stroke-miterlimit:10;}
	.star35{fill:none;stroke:#FFFFFF;stroke-width:0.7581;stroke-miterlimit:10;}
	.star36{fill:none;stroke:#FFFFFF;stroke-width:0.8307;stroke-miterlimit:10;}
</style>
<g id="XMLID_1564_" class="star0">
	
		<rect id="XMLID_1568_" x="1280.5" y="228.1" transform="matrix(4.086381e-02 0.9992 -0.9992 4.086381e-02 1461.7935 -1060.7324)" class="star1" width="5.9" height="5.9"/>
	<g id="XMLID_1565_" class="star0">
		<line id="XMLID_1567_" class="star2" x1="1280.8" y1="233.8" x2="1286" y2="228.3"/>
		<line id="XMLID_1566_" class="star2" x1="1286.2" y1="233.6" x2="1280.6" y2="228.5"/>
	</g>
</g>
<g id="XMLID_1559_">
	
		<rect id="XMLID_1563_" x="1201.5" y="151.9" transform="matrix(-0.8387 -0.5446 0.5446 -0.8387 2129.1094 938.4255)" class="star1" width="4" height="4"/>
	<g id="XMLID_1560_" class="star0">
		<line id="XMLID_1562_" class="star3" x1="1203" y1="151.4" x2="1204.1" y2="156.4"/>
		<line id="XMLID_1561_" class="star3" x1="1201" y1="154.5" x2="1206" y2="153.4"/>
	</g>
</g>
<g id="XMLID_1554_">
	
		<rect id="XMLID_1558_" x="1237.4" y="356.4" transform="matrix(0.2979 0.9546 -0.9546 0.2979 1212.1375 -931.473)" class="star1" width="3.7" height="3.7"/>
	<g id="XMLID_1555_" class="star0">
		<line id="XMLID_1557_" class="star4" x1="1238.2" y1="360.4" x2="1240.4" y2="356.1"/>
		<line id="XMLID_1556_" class="star4" x1="1241.4" y1="359.4" x2="1237.2" y2="357.2"/>
	</g>
</g>
<g id="XMLID_1549_">
	
		<rect id="XMLID_1553_" x="1197.9" y="270.5" transform="matrix(-0.9965 8.410618e-02 -8.410618e-02 -0.9965 2422.4443 446.8024)" class="star1" width="7.9" height="7.9"/>
	<g id="XMLID_1550_" class="star0">
		<line id="XMLID_1552_" class="star5" x1="1197.9" y1="271.2" x2="1205.7" y2="277.7"/>
		<line id="XMLID_1551_" class="star5" x1="1198.5" y1="278.3" x2="1205.1" y2="270.6"/>
	</g>
</g>
<g id="XMLID_1544_" class="star0">
	
		<rect id="XMLID_1548_" x="1062.9" y="132.2" transform="matrix(0.1781 -0.984 0.984 0.1781 742.9752 1161.6016)" class="star1" width="7.8" height="7.8"/>
	<g id="XMLID_1545_" class="star0">
		<line id="XMLID_1547_" class="star6" x1="1070.9" y1="133.2" x2="1062.7" y2="138.9"/>
		<line id="XMLID_1546_" class="star6" x1="1064" y1="132" x2="1069.7" y2="140.2"/>
	</g>
</g>
<g id="XMLID_1539_">
	
		<rect id="XMLID_1543_" x="1089.3" y="37.2" transform="matrix(0.8753 0.4836 -0.4836 0.8753 155.181 -522.9518)" class="star1" width="4.5" height="4.5"/>
	<g id="XMLID_1540_" class="star0">
		<line id="XMLID_1542_" class="star7" x1="1092.3" y1="42.2" x2="1090.7" y2="36.6"/>
		<line id="XMLID_1541_" class="star7" x1="1094.3" y1="38.6" x2="1088.8" y2="40.2"/>
	</g>
</g>
<g id="XMLID_1534_">
	
		<rect id="XMLID_1538_" x="960.6" y="58.2" transform="matrix(0.5182 -0.8552 0.8552 0.5182 412.0622 852.864)" class="star1" width="5" height="5"/>
	<g id="XMLID_1535_" class="star0">
		<line id="XMLID_1537_" class="star8" x1="966.1" y1="59.9" x2="959.9" y2="61.4"/>
		<line id="XMLID_1536_" class="star8" x1="962.3" y1="57.6" x2="963.8" y2="63.8"/>
	</g>
</g>
<g id="XMLID_1529_">
	
		<rect id="XMLID_1533_" x="890.8" y="265.2" transform="matrix(0.6057 -0.7957 0.7957 0.6057 138.6392 817.9532)" class="star1" width="7.7" height="7.7"/>
	<g id="XMLID_1530_" class="star0">
		<line id="XMLID_1532_" class="star9" x1="899.5" y1="268.4" x2="889.8" y2="269.7"/>
		<line id="XMLID_1531_" class="star9" x1="894" y1="264.2" x2="895.3" y2="274"/>
	</g>
</g>
<g id="XMLID_1524_">
	
		<rect id="XMLID_1528_" x="763.9" y="234.7" transform="matrix(-0.7837 -0.6211 0.6211 -0.7837 1222.089 904.1046)" class="star1" width="9.1" height="9.1"/>
	<g id="XMLID_1525_" class="star0">
		<line id="XMLID_1527_" class="star10" x1="767.8" y1="233.5" x2="769.1" y2="245.1"/>
		<line id="XMLID_1526_" class="star10" x1="762.6" y1="240" x2="774.2" y2="238.6"/>
	</g>
</g>
<g id="XMLID_1519_">
	
		<rect id="XMLID_1523_" x="681.4" y="166.9" transform="matrix(0.9564 0.2921 -0.2921 0.9564 79.6586 -192.6515)" class="star1" width="7" height="7"/>
	<g id="XMLID_1520_" class="star0">
		<line id="XMLID_1522_" class="star11" x1="687" y1="174.4" x2="682.8" y2="166.4"/>
		<line id="XMLID_1521_" class="star11" x1="688.9" y1="168.3" x2="680.9" y2="172.5"/>
	</g>
</g>
<g id="XMLID_1514_">
	
		<rect id="XMLID_1518_" x="578.5" y="94.7" transform="matrix(0.8762 -0.482 0.482 0.8762 24.8846 292.4676)" class="star1" width="6.2" height="6.2"/>
	<g id="XMLID_1515_" class="star0">
		<line id="XMLID_1517_" class="star12" x1="585.5" y1="98.9" x2="577.8" y2="96.7"/>
		<line id="XMLID_1516_" class="star12" x1="582.8" y1="93.9" x2="580.5" y2="101.7"/>
	</g>
</g>
<g id="XMLID_1509_">
	
		<rect id="XMLID_1513_" x="500.2" y="0.9" transform="matrix(-0.2378 -0.9713 0.9713 -0.2378 619.4766 496.5662)" class="star1" width="8.7" height="8.7"/>
	<g id="XMLID_1510_" class="star0">
		<line id="XMLID_1512_" class="star13" x1="507.4" y1="0.5" x2="501.7" y2="10"/>
		<line id="XMLID_1511_" class="star13" x1="499.8" y1="2.3" x2="509.3" y2="8.1"/>
	</g>
</g>
<g id="XMLID_1504_">
	
		<rect id="XMLID_1508_" x="426.1" y="304" transform="matrix(0.9989 4.673755e-02 -4.673755e-02 0.9989 14.8819 -19.7851)" class="star1" width="8.8" height="8.8"/>
	<g id="XMLID_1505_" class="star0">
		<line id="XMLID_1507_" class="star14" x1="434.3" y1="312.5" x2="426.7" y2="304.2"/>
		<line id="XMLID_1506_" class="star14" x1="434.7" y1="304.6" x2="426.4" y2="312.1"/>
	</g>
</g>
<g id="XMLID_1499_">
	
		<rect id="XMLID_1503_" x="378.9" y="83.3" transform="matrix(4.558904e-02 0.999 -0.999 4.558904e-02 453.1208 -299.2118)" class="star1" width="8.4" height="8.4"/>
	<g id="XMLID_1500_" class="star0">
		<line id="XMLID_1502_" class="star15" x1="379.5" y1="91.5" x2="386.8" y2="83.5"/>
		<line id="XMLID_1501_" class="star15" x1="387.1" y1="91.2" x2="379.1" y2="83.9"/>
	</g>
</g>
<g id="XMLID_1466_">
	
		<rect id="XMLID_1498_" x="275" y="13.1" transform="matrix(-0.7132 0.7009 -0.7009 -0.7132 491.235 -165.7789)" class="star1" width="9.1" height="9.1"/>
	<g id="XMLID_1495_" class="star0">
		<line id="XMLID_1497_" class="star16" x1="273.7" y1="17.6" x2="285.4" y2="17.7"/>
		<line id="XMLID_1496_" class="star16" x1="279.5" y1="23.4" x2="279.6" y2="11.8"/>
	</g>
</g>
<g id="XMLID_1461_">
	
		<rect id="XMLID_1465_" x="177.4" y="184.4" transform="matrix(0.4117 -0.9113 0.9113 0.4117 -64.5468 274.071)" class="star1" width="5.2" height="5.2"/>
	<g id="XMLID_1462_" class="star0">
		<line id="XMLID_1464_" class="star17" x1="183.1" y1="185.8" x2="176.9" y2="188.2"/>
		<line id="XMLID_1463_" class="star17" x1="178.8" y1="183.9" x2="181.2" y2="190.2"/>
	</g>
</g>
<g id="XMLID_1456_">
	
		<rect id="XMLID_1460_" x="30.6" y="348.2" transform="matrix(0.7919 0.6106 -0.6106 0.7919 222.6218 51.9485)" class="star1" width="8.9" height="8.9"/>
	<g id="XMLID_1457_" class="star0">
		<line id="XMLID_1459_" class="star18" x1="35.8" y1="358.3" x2="34.4" y2="346.9"/>
		<line id="XMLID_1458_" class="star18" x1="40.8" y1="351.9" x2="29.4" y2="353.3"/>
	</g>
</g>
<g id="XMLID_828_">
	
		<rect id="XMLID_870_" x="115.8" y="305.8" transform="matrix(0.1282 0.9918 -0.9918 0.1282 410.3849 151.3876)" class="star1" width="6.7" height="6.7"/>
	<g id="XMLID_829_" class="star0">
		<line id="XMLID_831_" class="star19" x1="116.5" y1="312.5" x2="121.7" y2="305.7"/>
		<line id="XMLID_830_" class="star19" x1="122.5" y1="311.7" x2="115.7" y2="306.5"/>
	</g>
</g>
<g id="XMLID_869_" class="star0">
	
		<rect id="XMLID_1455_" x="1.4" y="123.5" transform="matrix(0.3948 -0.9188 0.9188 0.3948 -114.0187 82.6145)" class="star1" width="8.7" height="8.7"/>
	<g id="XMLID_1452_" class="star0">
		<line id="XMLID_1454_" class="star20" x1="10.9" y1="125.8" x2="0.5" y2="129.9"/>
		<line id="XMLID_1453_" class="star20" x1="3.6" y1="122.7" x2="7.8" y2="133"/>
	</g>
</g>
<g id="XMLID_1441_">
	
		<rect id="XMLID_1451_" x="1290.6" y="120.5" transform="matrix(-0.5451 0.8384 -0.8384 -0.5451 2108.8921 -891.6933)" class="star1" width="11.6" height="11.6"/>
	<g id="XMLID_1442_" class="star0">
		<g id="XMLID_1447_">
			<line id="XMLID_1450_" class="star21" x1="1294.7" y1="132.1" x2="1301" y2="122.4"/>
			<line id="XMLID_1449_" class="star21" x1="1302.5" y1="124.8" x2="1290.9" y2="124.2"/>
			<line id="XMLID_1448_" class="star21" x1="1292.3" y1="122" x2="1297.6" y2="132.3"/>
		</g>
		<g id="XMLID_1443_">
			<line id="XMLID_1446_" class="star21" x1="1298" y1="120.4" x2="1291.7" y2="130.1"/>
			<line id="XMLID_1445_" class="star21" x1="1290.2" y1="127.7" x2="1301.8" y2="128.3"/>
			<line id="XMLID_1444_" class="star21" x1="1300.4" y1="130.5" x2="1295.1" y2="120.2"/>
		</g>
	</g>
</g>
<g id="XMLID_1430_" class="star0">
	
		<rect id="XMLID_1440_" x="1093.4" y="318.8" transform="matrix(0.3022 0.9532 -0.9532 0.3022 1080.7716 -821.9066)" class="star1" width="16.7" height="16.8"/>
	<g id="XMLID_1431_" class="star0">
		<g id="XMLID_1436_">
			<line id="XMLID_1439_" class="star22" x1="1106.8" y1="334.4" x2="1101.7" y2="318.5"/>
			<line id="XMLID_1438_" class="star22" x1="1105.8" y1="319.1" x2="1094.5" y2="331.5"/>
			<line id="XMLID_1437_" class="star22" x1="1093.4" y1="327.8" x2="1109.7" y2="331.4"/>
		</g>
		<g id="XMLID_1432_">
			<line id="XMLID_1435_" class="star22" x1="1096.7" y1="320.1" x2="1101.8" y2="336"/>
			<line id="XMLID_1434_" class="star22" x1="1097.8" y1="335.4" x2="1109.1" y2="323"/>
			<line id="XMLID_1433_" class="star22" x1="1110.2" y1="326.7" x2="1093.8" y2="323.1"/>
		</g>
	</g>
</g>
<g id="XMLID_1290_">
	
		<rect id="XMLID_1429_" x="799.9" y="96.7" transform="matrix(-0.9562 0.2927 -0.2927 -0.9562 1613.5732 -29.7889)" class="star1" width="18.3" height="18.3"/>
	<g id="XMLID_1291_" class="star0">
		<g id="XMLID_1425_">
			<line id="XMLID_1428_" class="star23" x1="801.1" y1="111.2" x2="818.6" y2="105.9"/>
			<line id="XMLID_1427_" class="star23" x1="817.9" y1="110.3" x2="804.5" y2="97.8"/>
			<line id="XMLID_1426_" class="star23" x1="808.5" y1="96.6" x2="804.4" y2="114.4"/>
		</g>
		<g id="XMLID_1421_">
			<line id="XMLID_1424_" class="star23" x1="816.9" y1="100.4" x2="799.5" y2="105.8"/>
			<line id="XMLID_1423_" class="star23" x1="800.2" y1="101.4" x2="813.5" y2="113.8"/>
			<line id="XMLID_1422_" class="star23" x1="809.6" y1="115" x2="813.7" y2="97.2"/>
		</g>
	</g>
</g>
<g id="XMLID_1010_" class="star0">
	
		<rect id="XMLID_1289_" x="486.6" y="217.3" transform="matrix(0.1713 -0.9852 0.9852 0.1713 188.3224 668.9006)" class="star1" width="10.3" height="10.4"/>
	<g id="XMLID_1280_" class="star0">
		<g id="XMLID_1285_">
			<line id="XMLID_1288_" class="star24" x1="491.1" y1="217.1" x2="489.3" y2="227.3"/>
			<line id="XMLID_1287_" class="star24" x1="487.3" y1="225.8" x2="497" y2="222.3"/>
			<line id="XMLID_1286_" class="star24" x1="496.6" y1="224.6" x2="488.6" y2="218"/>
		</g>
		<g id="XMLID_1281_">
			<line id="XMLID_1284_" class="star24" x1="492.5" y1="227.9" x2="494.3" y2="217.7"/>
			<line id="XMLID_1283_" class="star24" x1="496.3" y1="219.2" x2="486.6" y2="222.7"/>
			<line id="XMLID_1282_" class="star24" x1="487" y1="220.4" x2="494.9" y2="227.1"/>
		</g>
	</g>
</g>
<g id="XMLID_999_" class="star0">
	
		<rect id="XMLID_1009_" x="227.4" y="260.9" transform="matrix(-0.9983 -5.765165e-02 5.765165e-02 -0.9983 449.6136 545.4141)" class="star1" width="10.6" height="10.7"/>
	<g id="XMLID_1000_" class="star0">
		<g id="XMLID_1005_">
			<line id="XMLID_1008_" class="star25" x1="227.3" y1="267.6" x2="237.9" y2="268.2"/>
			<line id="XMLID_1007_" class="star25" x1="236.6" y1="270.5" x2="231.8" y2="260.9"/>
			<line id="XMLID_1006_" class="star25" x1="234.2" y1="261.1" x2="228.4" y2="270"/>
		</g>
		<g id="XMLID_1001_">
			<line id="XMLID_1004_" class="star25" x1="238.1" y1="264.9" x2="227.5" y2="264.3"/>
			<line id="XMLID_1003_" class="star25" x1="228.7" y1="262" x2="233.5" y2="271.5"/>
			<line id="XMLID_1002_" class="star25" x1="231.1" y1="271.4" x2="237" y2="262.5"/>
		</g>
	</g>
</g>
<g id="XMLID_868_">
	
		<rect id="XMLID_998_" x="101.5" y="34.1" transform="matrix(-0.1393 0.9903 -0.9903 -0.1393 165.7886 -60.4776)" class="star1" width="15.3" height="15.4"/>
	<g id="XMLID_988_" class="star0">
		<g id="XMLID_994_">
			<line id="XMLID_997_" class="star26" x1="110.5" y1="49.7" x2="112.6" y2="34.6"/>
			<line id="XMLID_996_" class="star26" x1="115.7" y1="36.7" x2="101.5" y2="42.4"/>
			<line id="XMLID_995_" class="star26" x1="102" y1="39" x2="114.1" y2="48.4"/>
		</g>
		<g id="XMLID_989_">
			<line id="XMLID_993_" class="star26" x1="107.9" y1="33.9" x2="105.7" y2="49"/>
			<line id="XMLID_992_" class="star26" x1="102.7" y1="46.9" x2="116.8" y2="41.2"/>
			<line id="XMLID_990_" class="star26" x1="116.3" y1="44.6" x2="104.3" y2="35.2"/>
		</g>
	</g>
</g>
<g id="XMLID_1415_" class="star0">
	
		<rect id="XMLID_1420_" x="1176.6" y="43" transform="matrix(0.902 -0.4318 0.4318 0.902 94.0493 517.1506)" class="star1" width="18.8" height="16.9"/>
	<g id="XMLID_1416_" class="star0">
		<line id="XMLID_1419_" class="star27" x1="1192.7" y1="43.8" x2="1175.8" y2="51.9"/>
		<line id="XMLID_1418_" class="star27" x1="1175.8" y1="47.3" x2="1191.3" y2="57.9"/>
		<line id="XMLID_1417_" class="star27" x1="1187.5" y1="59.8" x2="1188.9" y2="41"/>
	</g>
</g>
<g id="XMLID_1409_">
	
		<rect id="XMLID_1414_" x="947.3" y="329.1" transform="matrix(-0.7237 0.6901 -0.6901 -0.7237 1871.8719 -82.0575)" class="star1" width="10.1" height="9.1"/>
	<g id="XMLID_1410_" class="star0">
		<line id="XMLID_1413_" class="star28" x1="950.2" y1="338.7" x2="957.5" y2="331.8"/>
		<line id="XMLID_1412_" class="star28" x1="958.2" y1="334.1" x2="948.6" y2="331.3"/>
		<line id="XMLID_1411_" class="star28" x1="950.2" y1="329.7" x2="952.6" y2="339.5"/>
	</g>
</g>
<g id="XMLID_1403_">
	
		<rect id="XMLID_1408_" x="1009.2" y="249.3" transform="matrix(-0.7409 -0.6717 0.6717 -0.7409 1597.049 1126.6938)" class="star1" width="13.4" height="12"/>
	<g id="XMLID_1404_" class="star0">
		<line id="XMLID_1407_" class="star29" x1="1009" y1="252.9" x2="1018.9" y2="261.9"/>
		<line id="XMLID_1406_" class="star29" x1="1015.9" y1="263.1" x2="1018.7" y2="250"/>
		<line id="XMLID_1405_" class="star29" x1="1020.9" y1="252" x2="1008.2" y2="256.1"/>
	</g>
</g>
<g id="XMLID_1303_">
	
		<rect id="XMLID_1402_" x="412.1" y="190.1" transform="matrix(-0.9144 -0.4048 0.4048 -0.9144 726.5748 550.7476)" class="star1" width="18.8" height="16.9"/>
	<g id="XMLID_1398_" class="star0">
		<line id="XMLID_1401_" class="star30" x1="411.3" y1="198.4" x2="428.5" y2="206"/>
		<line id="XMLID_1400_" class="star30" x1="425" y1="209" x2="423" y2="190.3"/>
		<line id="XMLID_1399_" class="star30" x1="426.9" y1="192" x2="411.7" y2="203.1"/>
	</g>
</g>
<g id="XMLID_1297_" class="star0">
	
		<rect id="XMLID_1302_" x="249.2" y="80.6" transform="matrix(0.4019 0.9157 -0.9157 0.4019 235.9467 -183.4725)" class="star1" width="18.5" height="16.6"/>
	<g id="XMLID_1298_" class="star0">
		<line id="XMLID_1301_" class="star31" x1="265.7" y1="95.7" x2="258.3" y2="78.8"/>
		<line id="XMLID_1300_" class="star31" x1="262.8" y1="79.1" x2="251.9" y2="93.9"/>
		<line id="XMLID_1299_" class="star31" x1="250.2" y1="90.1" x2="268.6" y2="92.1"/>
	</g>
</g>
<g id="XMLID_867_">
	
		<rect id="XMLID_1296_" x="74.6" y="185.8" transform="matrix(0.8149 -0.5795 0.5795 0.8149 -96.5813 83.5695)" class="star1" width="16" height="14.4"/>
	<g id="XMLID_991_" class="star0">
		<line id="XMLID_1294_" class="star32" x1="87.1" y1="185.6" x2="74.1" y2="194.9"/>
		<line id="XMLID_1293_" class="star32" x1="73.4" y1="191" x2="88" y2="197.7"/>
		<line id="XMLID_1292_" class="star32" x1="85" y1="199.8" x2="83.5" y2="183.8"/>
	</g>
</g>
<g id="XMLID_1477_" class="star0">
	
		<rect id="XMLID_1494_" x="954.3" y="140.8" transform="matrix(0.949 0.3154 -0.3154 0.949 96.5636 -296.2732)" class="star1" width="18.9" height="18.9"/>
	<g id="XMLID_1478_" class="star0">
		<circle id="XMLID_1493_" class="star33" cx="963.7" cy="150.2" r="4.3"/>
		<g id="XMLID_1490_">
			<line id="XMLID_1492_" class="star33" x1="962.8" y1="152.9" x2="960.7" y2="159.2"/>
			<circle id="XMLID_1491_" class="star33" cx="963.7" cy="150.2" r="1.5"/>
		</g>
		<line id="XMLID_1489_" class="star33" x1="964.6" y1="147.6" x2="966.7" y2="141.3"/>
		<line id="XMLID_1488_" class="star33" x1="963.2" y1="147.5" x2="961.8" y2="141"/>
		<line id="XMLID_1487_" class="star33" x1="965.8" y1="148.4" x2="970.8" y2="143.9"/>
		<line id="XMLID_1486_" class="star33" x1="966.5" y1="149.7" x2="973" y2="148.3"/>
		<line id="XMLID_1485_" class="star33" x1="961.9" y1="148.1" x2="957.4" y2="143.2"/>
		<line id="XMLID_1484_" class="star33" x1="961.1" y1="149.3" x2="954.7" y2="147.2"/>
		<line id="XMLID_1483_" class="star33" x1="966.4" y1="151.1" x2="972.7" y2="153.2"/>
		<line id="XMLID_1482_" class="star33" x1="965.6" y1="152.3" x2="970" y2="157.3"/>
		<line id="XMLID_1481_" class="star33" x1="961" y1="150.8" x2="954.5" y2="152.1"/>
		<line id="XMLID_1480_" class="star33" x1="964.3" y1="153" x2="965.6" y2="159.5"/>
		<line id="XMLID_1479_" class="star33" x1="961.6" y1="152.1" x2="956.6" y2="156.5"/>
	</g>
</g>
<g id="XMLID_981_">
	
		<rect id="XMLID_1476_" x="636" y="226.1" transform="matrix(-0.6485 -0.7612 0.7612 -0.6485 882.4662 873.1086)" class="star1" width="13.5" height="13.5"/>
	<g id="XMLID_982_" class="star0">
		<circle id="XMLID_1475_" class="star34" cx="642.8" cy="232.8" r="3.1"/>
		<g id="XMLID_1472_">
			<line id="XMLID_1474_" class="star34" x1="644.3" y1="231.5" x2="647.9" y2="228.4"/>
			<circle id="XMLID_1473_" class="star34" cx="642.8" cy="232.8" r="1.1"/>
		</g>
		<line id="XMLID_1471_" class="star34" x1="641.3" y1="234.1" x2="637.7" y2="237.2"/>
		<line id="XMLID_1470_" class="star34" x1="642.1" y1="234.7" x2="640.5" y2="239.2"/>
		<line id="XMLID_1469_" class="star34" x1="640.8" y1="233.2" x2="636.2" y2="234.1"/>
		<line id="XMLID_1468_" class="star34" x1="640.9" y1="232.2" x2="636.4" y2="230.6"/>
		<line id="XMLID_1467_" class="star34" x1="643.2" y1="234.8" x2="644" y2="239.5"/>
		<line id="XMLID_1295_" class="star34" x1="644.1" y1="234.3" x2="647.2" y2="238"/>
		<line id="XMLID_987_" class="star34" x1="641.5" y1="231.3" x2="638.4" y2="227.7"/>
		<line id="XMLID_986_" class="star34" x1="642.4" y1="230.9" x2="641.6" y2="226.2"/>
		<line id="XMLID_985_" class="star34" x1="644.7" y1="233.5" x2="649.2" y2="235.1"/>
		<line id="XMLID_984_" class="star34" x1="643.5" y1="230.9" x2="645.1" y2="226.5"/>
		<line id="XMLID_983_" class="star34" x1="644.8" y1="232.5" x2="649.4" y2="231.6"/>
	</g>
</g>
<g id="XMLID_891_">
	
		<rect id="XMLID_940_" x="290.7" y="195.8" transform="matrix(0.8064 -0.5913 0.5913 0.8064 -64.0394 218.7297)" class="star1" width="22.7" height="22.7"/>
	<g id="XMLID_892_" class="star0">
		<circle id="XMLID_934_" class="star35" cx="302.1" cy="207.2" r="5.1"/>
		<g id="XMLID_931_">
			<line id="XMLID_933_" class="star35" x1="304.1" y1="209.9" x2="308.8" y2="216.3"/>
			<circle id="XMLID_932_" class="star35" cx="302.1" cy="207.2" r="1.9"/>
		</g>
		<line id="XMLID_930_" class="star35" x1="300.1" y1="204.5" x2="295.4" y2="198"/>
		<line id="XMLID_929_" class="star35" x1="299" y1="205.8" x2="291.7" y2="202.6"/>
		<line id="XMLID_928_" class="star35" x1="301.7" y1="203.8" x2="300.8" y2="195.9"/>
		<line id="XMLID_927_" class="star35" x1="303.4" y1="204.1" x2="306.7" y2="196.8"/>
		<line id="XMLID_926_" class="star35" x1="298.8" y1="207.5" x2="290.8" y2="208.4"/>
		<line id="XMLID_925_" class="star35" x1="299.4" y1="209.2" x2="292.9" y2="213.9"/>
		<line id="XMLID_924_" class="star35" x1="304.8" y1="205.2" x2="311.2" y2="200.5"/>
		<line id="XMLID_923_" class="star35" x1="305.4" y1="206.8" x2="313.4" y2="205.9"/>
		<line id="XMLID_922_" class="star35" x1="300.7" y1="210.3" x2="297.5" y2="217.6"/>
		<line id="XMLID_894_" class="star35" x1="305.2" y1="208.5" x2="312.5" y2="211.8"/>
		<line id="XMLID_893_" class="star35" x1="302.4" y1="210.5" x2="303.3" y2="218.5"/>
	</g>
</g>
<g id="XMLID_832_" class="star0">
	
		<rect id="XMLID_886_" x="676.3" y="41.4" transform="matrix(0.4212 0.907 -0.907 0.4212 447.4384 -593.4667)" class="star1" width="24.8" height="24.8"/>
	<g id="XMLID_862_" class="star0">
		<circle id="XMLID_885_" class="star36" cx="688.7" cy="53.8" r="5.6"/>
		<g id="XMLID_882_">
			<line id="XMLID_884_" class="star36" x1="685.4" y1="55.4" x2="677.4" y2="59.1"/>
			<circle id="XMLID_883_" class="star36" cx="688.7" cy="53.8" r="2"/>
		</g>
		<line id="XMLID_881_" class="star36" x1="692" y1="52.3" x2="700" y2="48.6"/>
		<line id="XMLID_880_" class="star36" x1="690.8" y1="50.8" x2="695.9" y2="43.7"/>
		<line id="XMLID_876_" class="star36" x1="692.4" y1="54.2" x2="701.1" y2="54.9"/>
		<line id="XMLID_875_" class="star36" x1="691.7" y1="56" x2="698.9" y2="61"/>
		<line id="XMLID_874_" class="star36" x1="689" y1="50.2" x2="689.8" y2="41.5"/>
		<line id="XMLID_872_" class="star36" x1="687.2" y1="50.5" x2="683.5" y2="42.6"/>
		<line id="XMLID_871_" class="star36" x1="690.3" y1="57.2" x2="693.9" y2="65.1"/>
		<line id="XMLID_866_" class="star36" x1="688.4" y1="57.5" x2="687.6" y2="66.2"/>
		<line id="XMLID_865_" class="star36" x1="685.7" y1="51.7" x2="678.5" y2="46.7"/>
		<line id="XMLID_864_" class="star36" x1="686.6" y1="56.9" x2="681.6" y2="64"/>
		<line id="XMLID_863_" class="star36" x1="685.1" y1="53.5" x2="676.3" y2="52.7"/>
	</g>
</g>
</svg>
