<?xml version="1.0" encoding="utf-8"?>
<!-- Generator: Adobe Illustrator 19.0.0, SVG Export Plug-In . SVG Version: 6.00 Build 0)  -->
<svg version="1.1" id="Warstwa_1" xmlns="http://www.w3.org/2000/svg" xmlns:xlink="http://www.w3.org/1999/xlink" x="0px" y="0px"
	 viewBox="0 0 60 69" style="enable-background:new 0 0 60 69;" xml:space="preserve">
<style type="text/css">
	.st0{fill:#808080;}
</style>
<g id="XMLID_748_">
	<circle id="XMLID_915_" class="st0" cx="27.1" cy="8.4" r="7.6"/>
	
		<rect id="XMLID_916_" x="42.5" y="60" transform="matrix(-0.3411 -0.94 0.94 -0.3411 8.9882 128.8586)" class="st0" width="14.2" height="2.5"/>
	<path id="XMLID_749_" class="st0" d="M0.4,67.1l4.8,1.7l6-16.7c5.1,1.8,10.5,2.7,16,2.7c12.1,0,23.7-4.5,32.7-12.6l-5.1-5.6
		c-7.5,6.9-17.3,10.6-27.5,10.6c-4.6,0-9.1-0.8-13.4-2.2l6.1-16.9c4.9,1.5,9.9,1.5,15.2,0L39.6,41l4.8-1.7l-6.3-17.7
		c-7.3,3.3-14.3,3.3-21.3-0.2L0.4,67.1z"/>
</g>
</svg>
