<?xml version="1.0" encoding="utf-8"?>
<!-- Generator: Adobe Illustrator 19.0.0, SVG Export Plug-In . SVG Version: 6.00 Build 0)  -->
<svg version="1.1" id="Warstwa_1" xmlns="http://www.w3.org/2000/svg" xmlns:xlink="http://www.w3.org/1999/xlink" x="0px" y="0px"
	 viewBox="0 0 150.5 50.8" style="enable-background:new 0 0 150.5 50.8;" xml:space="preserve">
<style type="text/css">
	.st0{fill:#CC6E4E;}
</style>
<g id="XMLID_1_">
	<path id="XMLID_2_" class="st0" d="M19.9,18.8c0.1-0.9,0.1-1.7,0.1-2.6c0.1-0.7,0.1-1.5,0.1-2.3c0-1.3,0-2.5,0.4-3.7
		c0.1-0.2,0.1-0.5,0-0.8c-0.1-0.1-0.1-0.5,0.1-0.6c0.4-0.5,0.3-1,0.3-1.5c0.1-0.9,0.3-1.7,0.8-2.4c0.1-0.2,0.1-0.4,0.3-0.5
		c0.2-0.5,0.4-0.9,1-1c0.5,0,0.8-0.3,1.2-0.5c0.1-0.1,0.3-0.3,0.5-0.5c0.1,0,0.3,0,0.5,0.1c0.4,0.1,0.7,0.3,1-0.1
		c0.1-0.1,0.4-0.1,0.5,0.1c0.3,0.5,0.6,1,0.8,1.5c0.1,0,0.3-0.1,0.4,0s0.2,0.3,0.2,0.4c0.1,0.8,0.1,1.6,0.1,2.4c0,0.6,0,1.3,0,1.9
		c0,1.4-0.1,2.8-0.1,4.2c-0.1,0.9-0.1,1.8-0.1,2.7c0.1,1.5,0.2,3,0.2,4.4c0.1,1-0.1,2.1-0.1,3.2c0,0.3,0,0.5,0,0.8
		c0.2,0.9,0.1,1.7,0.1,2.6c-0.1,0.9-0.1,1.8-0.1,2.7c0,0.5,0,1.1,0.1,1.6c0,0.5,0.1,1,0.1,1.4c0,0.6,0,1.1,0,1.7
		c0,0.9-0.1,1.9-0.1,2.8c0,0.3,0,0.6-0.1,1c0,0.4-0.1,0.8,0,1.2c0.1,0.1,0.1,0.3,0,0.5c-0.1,1.5-0.1,3,0,4.5
		c0.1,0.3-0.1,0.6-0.1,0.8c-0.3,0.7-0.5,1.5-0.7,2.2c-0.3,0.6-0.5,1.4-1.2,1.9c-0.3,0.2-0.5,0.2-0.7-0.1c-0.2-0.2-0.3-0.4-0.5-0.6
		c-0.3,0.3-0.6,0.2-0.8-0.1s-0.5-0.4-0.6-0.3c-0.3,0.1-0.3,0.4-0.4,0.6c-0.3,0.1-0.6,0.2-0.8,0.3c-0.3-0.1-0.6-0.2-0.8-0.3
		c-0.1,0.2-0.1,0.4-0.2,0.5c-0.1,0-0.1,0-0.1-0.1c-0.1,0-0.1-0.1-0.1-0.1c-0.2-0.6-0.7-0.8-1.3-0.7c-0.1-0.3-0.1-0.7-0.3-1
		c-0.1-0.3-0.3-0.6-0.5-0.8s-0.3-0.5-0.1-0.8c0.3-0.6,0.3-1.2,0.3-1.8c0-0.9,0.1-1.8,0.1-2.7c0.1-1,0.1-2,0.1-3
		c0-0.1-0.1-0.1-0.1-0.3c0.3-1.1,0.2-2.3,0.1-3.4c-0.1-0.7-0.1-1.4-0.1-2.1c0.1-0.8,0.1-1.6,0.1-2.4c0.1-0.6,0.1-1.2,0-1.7
		c-0.1-0.5-0.1-0.6-0.6-0.6c-0.9,0-1.7,0-2.6,0c-1-0.1-4.5-0.1-5.4-0.1c-0.5,0.1-1.1,0-1.4,0.6c-0.1,0.1-0.1,0.3-0.1,0.5
		c-0.1,0.4,0,0.7,0,1.1c0,1.6,0,3.2-0.1,4.8c0,1,0,2.1-0.1,3.1c0,0.2,0,0.4,0.1,0.5c0.5,1.2,0.3,2.4,0.3,3.5c0,0.3-0.1,0.5-0.2,0.7
		c-0.1,0.5-0.2,1.1,0.1,1.6c0.1,0.3,0.1,0.7-0.1,1c-0.1,0.5,0,1,0,1.5c0.1,0.9-0.1,1.7-0.8,2.3c-0.6,0.5-1,0.4-1.5-0.3
		c0-0.1-0.1-0.2-0.1-0.3c0,0-0.1,0-0.2-0.1c-0.1,0.5,0.3,1-0.2,1.4c-0.1,0-0.3,0-0.4-0.1c-0.6-0.1-1.2-0.3-1.7-0.5
		C3.5,48.9,2.7,48.4,2,48c-0.5-0.2-0.6-0.6-0.7-1.2c-0.1-1-0.3-1.9-0.3-2.9c0-1,0.1-2,0.1-3c0-0.9,0-1.9,0.1-2.8
		c0.1-1.9,0.3-3.8,0.3-5.7c0.1-1.2,0-2.4,0.1-3.6c0-0.9,0.1-1.8,0.2-2.8c0-0.6,0-1.2,0.1-1.8c0.1-0.8,0.2-1.5,0.3-2.2
		c0.1-0.4,0.1-0.8,0.1-1.2c0.1-0.7,0.1-1.5,0.2-2.2c0.1-1.1,0.2-2.1,0.2-3.2c0.1-1.4,0.1-2.7,0.2-4.1c0-1,0.1-2,0.1-3
		c0-0.5,0-1-0.1-1.4C2.8,5.9,3.3,4.9,3.7,3.9C4,3.1,4.5,2.7,5.2,2.2C5.6,2,6,1.8,6.4,1.8c0.6,0,1.4,0,2,0c0.3-0.1,0.5,0.1,0.6,0.3
		c0.3,0.6,0.5,1.4,0.6,2.1s0.3,1.4,0.4,2.1c0.2,1.1,0.2,2.2,0.1,3.3c-0.1,0.8-0.3,1.7-0.2,2.5c0.1,0.6,0,1.3,0,1.9
		c-0.1,0.9-0.1,1.7-0.1,2.6c-0.1,0.8,0,1.5,0,2.3c0,0.5,0.1,0.5,0.5,0.5s0.8,0,1.3,0c0.5,0.1,3.7,0.1,4.2,0.2c1,0.1,1.9,0.2,2.8,0.3
		c0.3,0,0.6,0,1,0C19.8,19.6,19.9,19.2,19.9,18.8z M3.4,42.2c0.1,0.5,0.1,0.8,0.3,1.3c0.1,0.3,0.4,0.6,0.1,1c0,0,0,0.1,0.1,0.2
		c0.5-0.4,0.6-0.8,0.4-1.3c-0.1-0.1-0.1-0.3-0.1-0.5C4,42.5,4,42.1,3.7,41.7C3.6,41.9,3.4,42,3.4,42.2z M3.6,40.4
		c-0.2,0.3-0.3,0.6,0.1,1C4,41,4,41,3.6,40.4z M4,45.7c0.2,0.3,0.5,0.6,0.9,0.7c0.1-0.6-0.5-1-0.5-1.5C3.9,45.1,3.8,45.3,4,45.7z
		 M4.3,47c0.1,0.1,0.3,0.2,0.4-0.1c0-0.1-0.1-0.3-0.3-0.5C4.3,46.8,4.3,46.9,4.3,47z M5.2,30.9C5.1,31,5.1,31,5.1,31.2
		c0,0,0.1,0.1,0.1,0.1h0.1C5.2,31.2,5.3,31.1,5.2,30.9C5.2,31,5.2,30.9,5.2,30.9z M5.8,47.2c0.1-0.7,0.1-0.7-0.5-0.6
		C5.5,46.8,5.6,46.9,5.8,47.2z M5.8,38.2c-0.1,0.1-0.1,0.1-0.1,0.2c0,0.1,0,0.3,0,0.4c0.1,0,0.1,0,0.1-0.1
		C5.9,38.6,5.9,38.4,5.8,38.2L5.8,38.2z M6,37c0-0.5,0.4-1,0.1-1.5C5.8,35.7,5.8,36.1,6,37z M6.2,33.5c0,0.4-0.2,0.7,0,1.1
		c0.3-0.4,0.1-0.8,0.3-1.2C6.3,33.4,6.2,33.5,6.2,33.5z M6.5,42.8c-0.1-0.1-0.2-0.1-0.3-0.1s-0.1,0.1-0.1,0.2
		c-0.1,0.2,0.1,0.4,0.6,0.5C6.7,43.1,6.6,42.9,6.5,42.8z M6.3,32.6c0,0.1-0.1,0.3-0.1,0.3S6.3,33,6.4,33c0-0.1,0.1-0.2,0.1-0.3
		C6.4,32.6,6.3,32.6,6.3,32.6z M6.6,47.4c-0.1-0.1-0.3-0.1-0.3-0.1c-0.1,0-0.1,0.1-0.1,0.1c0.1,0.1,0.1,0.2,0.3,0.3
		C6.5,47.6,6.5,47.5,6.6,47.4c0.1,0.1,0.3,0.3,0.6,0.6c-0.2-0.4-0.3-0.6-0.4-0.8c0.3-0.5,0.3-0.5-0.2-0.6c-0.1,0.3,0.1,0.5,0.2,0.6
		C6.7,47.1,6.5,47.1,6.6,47.4z M6.3,31.7c0,0.3-0.2,0.5,0.3,0.8c0-0.3-0.1-0.6-0.1-0.8C6.4,31.7,6.3,31.7,6.3,31.7z M6.5,30.4
		c0-0.4,0-0.8,0-1.2C6.2,29.7,6.2,30.1,6.5,30.4z M6.5,28.3c-0.3,0.2-0.2,0.4,0,0.6C6.5,28.7,6.5,28.5,6.5,28.3z M6.4,38.5
		c0.1,0.1,0.1,0.3,0.1,0.5c0.1,0,0.1,0,0.1,0c0-0.2-0.1-0.3-0.1-0.5C6.5,38.5,6.5,38.5,6.4,38.5z M6.5,39.6c-0.1,0.4-0.1,0.7,0.2,1
		C6.7,40.2,7,39.9,6.5,39.6z M7,44.4c-0.1-0.3,0-0.8-0.4-1C6.5,44.2,6.6,44.4,7,44.4z M6.9,17c-0.1,0.6-0.2,1.3-0.3,1.9
		c0.1,0.2,0.1,0.3,0.3,0.5C7.1,18.5,7.1,17.8,6.9,17z M21.9,43c0,0.1,0.1,0.1,0.1,0.2c0.1-0.1,0.2-0.1,0.3-0.2
		c0-0.1-0.1-0.2-0.1-0.3C22.1,42.8,21.9,42.9,21.9,43z M22.1,42.6c-0.1-0.2,0.5-0.6-0.1-0.8C22.1,42.2,22.1,42.4,22.1,42.6z
		 M22.3,41.6c0-0.1,0-0.3-0.1-0.5c0-0.1-0.1,0-0.2,0C22.1,41.3,22.2,41.5,22.3,41.6L22.3,41.6z M22.3,44.6c-0.1-0.3-0.1-0.5-0.1-0.8
		C22.1,44.3,22.1,44.3,22.3,44.6z M22.3,39.4c0,0.1-0.1,0.2-0.1,0.3c0.1,0,0.2,0.1,0.3,0.1c-0.1-0.1-0.1-0.3-0.1-0.3
		C22.3,39.4,22.3,39.4,22.3,39.4z M22.3,40.5c0.1-0.1,0.1-0.2,0.1-0.3c-0.1,0-0.2,0-0.3-0.1c0,0.1,0,0.3,0,0.3
		C22.3,40.4,22.3,40.5,22.3,40.5z M22.8,35.9c-0.1-0.2,0.1-0.5-0.3-0.6C22.3,35.9,22.3,35.9,22.8,35.9z M22.8,34.2
		c-0.3,0.1-0.3,0.1-0.5,0.6c0,0.3,0.1,0.3,0.3,0.3C22.8,34.8,22.8,34.5,22.8,34.2z M22.7,47.5c-0.3,0.3-0.3,0.3,0.3,0.5
		C22.8,47.7,22.7,47.6,22.7,47.5z M22.5,29.3c0.1,0.1,0.1,0.1,0.1,0.3l0.1-0.1c0-0.1-0.1-0.2-0.1-0.3C22.6,29.3,22.6,29.3,22.5,29.3
		z M22.7,27.2c0,0.2,0,0.3,0,0.5c0.1,0,0.1,0,0.1,0c0-0.2,0-0.3,0-0.5C22.7,27.2,22.7,27.2,22.7,27.2z M22.8,26.5
		c0.1-0.3,0.1-0.4,0.1-0.5C22.7,26.1,22.6,26.3,22.8,26.5z M23.2,46.5c0.1-0.1,0.2-0.1,0.3-0.2c-0.1-0.1-0.1-0.2-0.3-0.3
		c-0.1,0.1-0.1,0.2-0.2,0.3C23.2,46.4,23.2,46.4,23.2,46.5z M23.4,8c0-0.1,0-0.1-0.1-0.3c-0.1,0.4-0.3,0.6,0,0.9
		C23.4,8.5,23.4,8.2,23.4,8z M23.4,13.4c0-0.4,0-0.8,0-1.2c0,0-0.1,0-0.1,0c0,0.4,0,0.8,0,1.2C23.4,13.4,23.4,13.4,23.4,13.4z
		 M23.4,10.9c0,0.5,0,0.8,0,1.4C23.8,11.6,23.8,11.3,23.4,10.9z M23.7,23.6c0,0.1-0.1,0.2-0.1,0.3h0.1c0.1-0.1,0.1-0.2,0.1-0.3
		C23.8,23.7,23.8,23.7,23.7,23.6z M24.5,47.6c-0.1-0.3,0.1-0.7-0.3-1C23.9,47.1,24,47.3,24.5,47.6z M24.8,29.2
		c0.1,0.1,0.1,0.2,0.1,0.3H25c0-0.1,0-0.2,0-0.3C25,29.2,24.9,29.2,24.8,29.2z"/>
	<path id="XMLID_43_" class="st0" d="M50.9,26.5c-0.4,0.1-0.7,0.3-1.1,0.5c-1.2,0.5-2.6,0.6-3.9,0.6c-0.5,0-1,0-1.5,0
		c-0.6,0-0.8,0.2-0.8,0.8c-0.1,1.4-0.1,2.6-0.1,4c-0.1,1.2-0.1,2.4-0.1,3.7c0,0.4,0,0.7,0,1.1c0,0.3,0,0.5-0.3,0.6
		c-0.1,0.1-0.1,0.3-0.1,0.5c0,1,0,2.1,0,3c0,0.8,0.2,1,1,1c0.6,0.1,1.3,0,2,0c0.1,0,0.3,0,0.4,0c0.8,0,1.6,0,2.4,0
		c0.3,0,0.6,0.1,1,0.2c0.8,0.3,1.6,0.6,2.3,1.1c0.7,0.5,1.4,0.9,1.9,1.5c0.1,0.1,0.2,0.2,0.3,0.4c-0.8,0.2-1.4,0.3-2.2,0.5
		c0.1,0.2,0.3,0.4,0.5,0.6c-0.5,0.3-0.9,0-1.4,0.2c1,0,2.1,0,3.1-0.1c0.1,0.8-0.3,1.2-0.8,1.5c-0.6,0.4-1.2,0.6-1.7,0.9
		c-0.5,0.3-1.1,0.3-1.7,0.3c-0.5,0.1-0.9,0.1-1.4,0.2c-0.1,0-0.2,0-0.3,0c-1.2-0.3-2.4-0.1-3.7-0.3c-1.2-0.1-2.4,0.1-3.6,0.2
		c-0.1,0-0.3,0-0.3,0.1c-0.4,0.5-1,0.4-1.5,0.3c-0.6-0.1-1.2-0.2-1.4-0.9c-0.1,0.1-0.3,0.2-0.4,0.3c-0.1,0-0.3,0-0.3-0.1
		c-0.1-0.4-0.6-0.4-0.8-0.6c-0.1-0.1-0.2-0.3-0.3-0.5c0-0.1,0-0.2,0-0.2c-0.6-0.6-0.5-1.3-0.6-1.9c0-0.6-0.3-1.2-0.1-1.8
		c0.1-1.2-0.2-2.3-0.2-3.4c0-0.4,0.1-0.8,0.1-1.2c0-0.8-0.1-1.7-0.1-2.4c-0.1-1.6-0.1-3.2-0.1-4.8c0.1-1.4,0.1-2.7,0.1-4.1
		c0.1-1.4,0.3-2.8,0.4-4.2c0.1-0.9,0.1-1.7,0.1-2.6c0-1,0-1.9,0.1-2.8c0-0.8-0.1-1.7,0-2.5c0.1-1-0.3-1.9-0.2-2.8
		c0-1.9,0.1-3.8,0.1-5.7c0-0.4,0.1-0.8,0.1-1.1c0-0.4,0.1-0.6,0.5-0.9c0.2-0.1,0.3-0.5,0.5-0.6c0.3-0.7,0.6-1.4,1.2-1.9
		c0.1-0.1,0.3-0.3,0.5-0.3c0.6-0.1,0.8-0.5,1.2-0.9c0.1-0.3,0.3-0.3,0.6-0.3c0.8,0.1,1.7,0.1,2.5,0.1c1,0,1.9-0.1,2.9-0.1
		c0.5,0,0.8,0,1.3,0c0.6,0,1.3-0.1,1.9-0.1c0.1-0.1,0.3-0.1,0.3-0.1c0.5,0.3,0.9,0.5,1.2,0.7c0.6,0.5,1.1,0.9,1.5,1.4
		c0.3,0.2,0.5,0.4,0.7,0.6C53,3.6,53.1,3.8,53.2,4c-0.4,0.1-0.7,0.2-1,0.4c0.3,0.1,0.5,0.3,0.6,0.5c0.2,0.1,0.5,0.1,0.7,0.1
		c0,0.1,0,0.1,0,0.2c-0.6,0.3-1.3-0.1-1.9,0.1c0,0.1,0,0.3,0.1,0.4c-0.2,0.1-0.4,0.1-0.7,0.2C51.3,5.8,51.6,5.8,52,6
		c-0.3,0.1-0.4,0.1-0.5,0.1c-0.9,0.1-1.8,0.1-2.6,0.1c-0.4,0.1-0.5,0.1-0.5,0.8c0.2,0,0.4-0.1,0.5-0.1c0.3-0.1,0.6-0.3,1-0.4
		c0.6-0.3,1.4-0.4,2.1-0.1c0.1,0.1,0.3,0,0.4,0c0.1-0.1,0.2-0.1,0.3-0.1c0.3,0.5,0.7,0.3,1.2,0.3c-0.3,0.5-0.6,0.9-1.2,1
		c-0.1,0-0.1,0.1-0.3,0.1c-1.5,0.8-3,1.1-4.7,1.1C46.9,8.9,46.2,9,45.5,9c-0.6,0.1-0.9,0.5-0.9,1c-0.1,1.3-0.3,2.6-0.3,3.9
		c0,1.4-0.2,2.6-0.2,4c0,0.5,0.1,1.1,0.1,1.7c0.1,0.1,0.3,0.1,0.5,0.1c0.7-0.1,1.4-0.1,2.1-0.1c0.6,0,1.2,0,1.7,0.3
		c0.8,0.5,1.7,0.8,2.4,1.5c0.4,0.3,0.8,0.6,1.2,1c0.5,0.3,0.5,0.4,0.1,0.8c0,0.1,0,0.1-0.1,0.2c0.1,0.1,0.2,0.3,0.3,0.3
		c-0.1,0.1-0.1,0.1-0.1,0.1c-0.8-0.1-1.3,0.6-2.1,0.5c-0.1,0-0.1,0.1-0.2,0.1c0.5,0.5,1,0.3,1.5,0.4c-0.1,0.1-0.2,0.2-0.3,0.3
		c0.5-0.1,0.8-0.1,0.8,0.5C51.8,26.1,51.4,26.4,50.9,26.5z M39.5,42.5c-0.2,0-0.3-0.1-0.5-0.1C39,42.4,39,42.5,39,42.5
		c0.1,0.1,0.3,0.1,0.5,0.1C39.5,42.6,39.5,42.6,39.5,42.5z M39.9,36.4c0-0.2,0-0.4-0.1-0.6c0,0-0.1,0-0.1,0c0,0.2,0.1,0.4,0.1,0.6
		C39.9,36.4,39.9,36.4,39.9,36.4z M39.7,36.7c0.1,0.3,0.1,0.5,0.1,0.8c0.4-0.3,0.2-0.5,0.1-0.8C39.9,36.7,39.8,36.7,39.7,36.7z
		 M40,37.5c-0.1,1-0.1,2,0.3,3C40.4,39.5,40.3,38.5,40,37.5z M40.5,41.6c0-0.3,0-0.5,0-0.7C40.2,41.1,40.2,41.3,40.5,41.6z M41.7,6
		C41.5,6,41.2,6,41,6c0,0.1,0,0.1,0,0.1C41.2,6.1,41.5,6.1,41.7,6C41.7,6,41.7,6,41.7,6z M42.1,41.4c-0.1-1.2-0.1-2.3-0.2-3.5
		c0-0.1-0.1-0.2-0.2-0.3c-0.1,1,0,3.2,0.3,4C42,41.5,42.1,41.5,42.1,41.4z M43.5,5.9c0.3,0,0.5,0,0.7,0C44,5.9,43.8,5.9,43.5,5.9z
		 M45.7,7c-0.1,0-0.3,0-0.5,0C45.4,7,45.6,7,45.7,7z M47.3,26.3c0.4-0.1,0.8-0.2,1.1-0.6c-0.4,0.1-0.8,0.3-1.2,0.4
		C47.3,26.1,47.3,26.2,47.3,26.3z M50.1,47.6c-0.6,0-0.7,0-0.7,0.5C50.2,48,50.2,48,50.1,47.6z M50.3,25.4c-0.2-0.1-0.4-0.1-0.5-0.1
		c-0.1,0.1-0.1,0.1-0.1,0.1c0.1,0.1,0.3,0.1,0.5,0.1C50.2,25.5,50.2,25.5,50.3,25.4z"/>
	<path id="XMLID_57_" class="st0" d="M63.5,3.5c-0.1-1,0.9-1,1.3-1.5C65,2,65.3,2.1,65.6,2.1c0.1-0.1,0.1-0.3,0.1-0.4
		C65.6,1.4,65.6,1.1,66,1c0.3-0.1,0.6-0.2,0.9,0.1c0.4,0.3,0.9,0.5,1.4,0.3c0,0.1,0.1,0.1,0.1,0.1c0.4,1.4,1.2,2.8,1.4,4.3
		c0,0.6,0.2,1.2,0.2,1.8c-0.1,0.5-0.1,0.8-0.1,1.3c-0.1,1.4-0.1,2.8-0.2,4.3c0,0.5-0.1,0.9-0.1,1.4c-0.1,0.7,0,1.5,0,2.2
		c-0.1,0.8-0.1,1.7-0.2,2.5c-0.1,0.3-0.1,0.6-0.1,1c-0.1,1.1-0.1,2.3-0.1,3.4c-0.1,1-0.1,1.9-0.1,2.9c-0.1,0.6-0.1,1.4-0.1,2
		c0,3.8,0,7.6,0,11.4c0,0.6,0,1.2,0,1.7s0.1,0.6,0.6,0.7c0.3,0.1,0.6,0.1,0.9,0.1c1.5-0.1,3.1,0.1,4.6,0.4c0.6,0.1,1.3,0.4,1.8,0.8
		c0.3,0.1,0.5,0.4,0.6,0.6c0.3,0.4,0.5,0.8,0.6,1.3c0.3,0.5,0.2,0.8-0.3,1.2c-0.4,0.3-0.7,0.6-1.1,1c-1.1,0.7-2.1,1.4-3.2,2.1
		c-0.6,0.4-1.2,0.5-1.9,0.5c-1.2-0.1-2.3,0-3.5,0.1c-0.1,0-0.3,0-0.4,0c-0.9,0-1.7,0-2.6,0.1c-0.5,0-0.9,0-1.4-0.3
		c-0.3-0.3-0.6,0-0.9,0.2c0,0-0.1-0.1-0.1-0.1c0.1-0.3,0.2-0.5,0.3-0.7c-0.2-0.4-0.3-1-0.8-1.2c-0.2-0.4-0.3-0.8-0.5-1.2
		c0-0.1-0.1-0.3-0.1-0.4c-0.1-1-0.3-1.9-0.5-2.8C61,44,61,43.9,61,43.7c0.3-0.5,0-1,0-1.5c-0.1-0.6,0-1.2-0.1-1.9
		c0-0.6,0-1.2-0.1-1.7c-0.1-1-0.1-1.9-0.1-2.8s0.1-1.9,0-2.9c-0.1-0.7,0-1.5,0-2.2c0.1-0.9,0.1-1.8,0.2-2.8c0.1-0.2,0-0.4,0.1-0.6
		c0.3-0.6,0.2-1.3,0.2-1.9c0-1.5,0.1-3.1,0.3-4.7c0.2-1.4,0.3-2.8,0.3-4.3c0.1-1.6,0.1-3.2,0.1-4.8c0-0.7,0-1.5,0-2.3
		c0-0.3,0.1-0.7,0.1-1c0.1-1,0.2-2.1,0.4-3.2c0.1-0.5,0.2-0.9,0.3-1.4C63.1,3.6,63.2,3.6,63.5,3.5z M65.3,20.8
		c-0.3,0.8-0.2,1.5-0.1,2.3C65.3,22.3,65.5,21.5,65.3,20.8z M65.3,20.5c0-0.3,0.1-0.5,0-0.8s0.6-0.3,0.3-0.6c-0.1,0-0.3,0.1-0.5,0.1
		C65.1,19.7,65.2,20.1,65.3,20.5L65.3,20.5z M67,7.6c-0.3,0.5-0.3,0.6,0.2,1.2C67.1,8.3,67.1,8,67,7.6z M74.1,45.1
		c0.3,0.1,0.3,0.1,0.6-0.1C74.5,44.9,74.3,44.9,74.1,45.1z M76.4,46.5c0.2,0,0.5,0,0.6,0c-0.1-0.1-0.3-0.1-0.4-0.1
		C76.6,46.4,76.5,46.4,76.4,46.5L76.4,46.5z"/>
	<path id="XMLID_64_" class="st0" d="M86.4,3.5c-0.1-1,0.9-1,1.3-1.5c0.3,0.1,0.5,0.1,0.8,0.2c0.1-0.1,0.1-0.3,0.1-0.4
		c-0.1-0.3-0.1-0.6,0.3-0.8c0.3-0.1,0.6-0.2,0.9,0.1c0.4,0.3,0.9,0.5,1.4,0.3c0,0.1,0.1,0.1,0.1,0.1c0.4,1.4,1.2,2.8,1.4,4.3
		c0,0.6,0.2,1.2,0.2,1.8c-0.1,0.5-0.1,0.8-0.1,1.3c-0.1,1.4-0.1,2.8-0.2,4.3c0,0.5-0.1,0.9-0.1,1.4c-0.1,0.7,0,1.5,0,2.2
		c-0.1,0.8-0.1,1.7-0.2,2.5c-0.1,0.3-0.1,0.6-0.1,1c-0.1,1.1-0.1,2.3-0.1,3.4c-0.1,1-0.1,1.9-0.1,2.9c-0.1,0.6-0.1,1.4-0.1,2
		c0,3.8,0,7.6,0,11.4c0,0.6,0,1.2,0,1.7s0.1,0.6,0.6,0.7c0.3,0.1,0.6,0.1,0.9,0.1c1.5-0.1,3.1,0.1,4.6,0.4c0.6,0.1,1.3,0.4,1.8,0.8
		c0.3,0.1,0.5,0.4,0.6,0.6c0.3,0.4,0.5,0.8,0.6,1.3c0.3,0.5,0.2,0.8-0.3,1.2c-0.4,0.3-0.7,0.6-1.1,1c-1.1,0.7-2.1,1.4-3.2,2.1
		c-0.6,0.4-1.2,0.5-1.9,0.5c-1.2-0.1-2.3,0-3.5,0.1c-0.1,0-0.3,0-0.4,0c-0.9,0-1.7,0-2.6,0.1c-0.5,0-0.9,0-1.4-0.3
		c-0.3-0.3-0.6,0-0.9,0.2c0,0-0.1-0.1-0.1-0.1c0.1-0.3,0.2-0.5,0.3-0.7c-0.2-0.4-0.3-1-0.8-1.2c-0.2-0.4-0.3-0.8-0.5-1.2
		c0-0.1-0.1-0.3-0.1-0.4c-0.1-1-0.3-1.9-0.5-2.8c-0.1-0.1-0.1-0.3-0.1-0.4c0.3-0.5,0-1,0-1.5c-0.1-0.6,0-1.2-0.1-1.9
		c0-0.6,0-1.2-0.1-1.7c-0.1-1-0.1-1.9-0.1-2.8s0.1-1.9,0-2.9c-0.1-0.7,0-1.5,0-2.2c0.1-0.9,0.1-1.8,0.2-2.8c0.1-0.2,0-0.4,0.1-0.6
		c0.3-0.6,0.2-1.3,0.2-1.9c0-1.5,0.1-3.1,0.3-4.7c0.2-1.4,0.3-2.8,0.3-4.3c0.1-1.6,0.1-3.2,0.1-4.8c0-0.7,0-1.5,0-2.3
		c0-0.3,0.1-0.7,0.1-1c0.1-1,0.2-2.1,0.4-3.2c0.1-0.5,0.2-0.9,0.3-1.4C86,3.6,86.1,3.6,86.4,3.5z M88.2,20.8
		c-0.3,0.8-0.2,1.5-0.1,2.3C88.3,22.3,88.4,21.5,88.2,20.8z M88.3,20.5c0-0.3,0.1-0.5,0-0.8s0.6-0.3,0.3-0.6c-0.1,0-0.3,0.1-0.5,0.1
		C88.1,19.7,88.1,20.1,88.3,20.5L88.3,20.5z M89.9,7.6c-0.3,0.5-0.3,0.6,0.2,1.2C90.1,8.3,90,8,89.9,7.6z M97,45.1
		c0.3,0.1,0.3,0.1,0.6-0.1C97.4,44.9,97.2,44.9,97,45.1z M99.4,46.5c0.2,0,0.5,0,0.6,0c-0.1-0.1-0.3-0.1-0.4-0.1
		C99.5,46.4,99.4,46.4,99.4,46.5L99.4,46.5z"/>
	<path id="XMLID_71_" class="st0" d="M106.8,43.4c-0.1-0.3-0.2-0.5,0.1-0.8c0.3-0.3,0.1-0.6-0.1-1c-0.3-0.5-0.6-0.8-0.7-1.4
		c-0.1-0.1-0.1-0.3-0.1-0.4c-0.4-1.7-0.7-3.5-0.8-5.3c-0.1-0.8-0.2-1.6-0.3-2.4c0-1,0.1-1.9,0.1-2.9c0-1,0-2.1,0.1-3.2
		c0.1-1.2,0.1-2.3,0.2-3.4c0.2-1.2,0.4-2.5,0.6-3.7c0.3-1.5,0.8-3.2,1.3-4.6c0.3-1,0.6-2.1,1-3c0.2-0.6,0.6-1.1,0.8-1.7
		c0.6-1.3,1.4-2.4,2.4-3.4c0.6-0.7,1.3-1.5,2.3-1.8c0.1-0.1,0.1-0.1,0.3-0.2c0.6-0.4,1.2-0.8,1.9-1.2c0.1-0.1,0.3-0.1,0.5-0.1
		c0.2,0,0.3,0.1,0.5,0.1c0.4,0.1,0.8,0.1,1.1-0.3c0.1-0.2,0.5-0.2,0.8-0.4c0.1,0.1,0.4,0.2,0.6,0.3c0.1,0.1,0.3,0.2,0.3,0.1
		c0.6-0.3,0.9,0.1,1.4,0.3c0.7,0.3,1.5,0.6,2.2,0.8c1.1,0.5,1.9,1.3,2.8,2.1c0.4,0.4,0.8,0.8,1.3,1.2c0.7,0.5,1.2,1.2,1.6,1.9
		c0.5,0.8,1,1.7,1.5,2.5c0.5,0.9,1,1.9,1.4,2.8c0.6,1.3,1.1,2.6,1.4,3.9c0.1,0.6,0.3,1.3,0.3,2c0.1,0.8,0.3,1.5,0.3,2.3
		c0.2,1,0.3,1.9,0.5,2.9c0.1,0.3-0.1,0.6-0.1,1c-0.1,0.9,0,1.8-0.1,2.8c-0.1,1.2-0.2,2.3-0.3,3.4c-0.1,0.5-0.1,0.9-0.1,1.3
		c0.1,1.2-0.3,2.3-0.5,3.5c-0.2,0.7-0.3,1.5-0.6,2.3c-0.4,1.4-1,2.8-1.8,4.1c-0.8,1.2-1.5,2.4-2.3,3.5c-0.3,0.4-0.6,0.6-1,0.7
		c-0.5,0.1-0.9,0.5-1.3,0.8c-0.8,0.6-1.6,1-2.6,1.2c-0.8,0.1-1.6,0.2-2.4,0.3c-0.3,0.1-0.6,0.2-1,0.3c-1.7,0.2-3.5,0-5.2-0.8
		c-0.3-0.1-0.6-0.3-1-0.4c-0.9-0.3-1.7-0.8-2.5-1.4c-0.8-0.6-1.5-1.4-2.2-2.2c-0.6-0.8-1.1-1.6-1.6-2.4c-0.2-0.2-0.3-0.6-0.7-0.5
		C106.8,43,106.8,43.2,106.8,43.4z M110.2,34.8c0-0.3-0.1-0.5-0.1-0.7C109.9,34.4,109.9,34.4,110.2,34.8z M110.2,35
		c-0.3,0.2-0.3,0.4,0.1,0.7C110.3,35.3,110.2,35.1,110.2,35z M110.9,37.1c0.1-0.3,0.1-0.5-0.3-0.7C110.7,36.7,110.8,36.9,110.9,37.1
		z M111.4,34.9c0.1-0.6-0.1-1-0.3-1.4C111,34,111,34.4,111.4,34.9z M122.6,40.2c0.5-0.7,0.8-1.4,1.2-2.2c0.3-0.4,0.2-0.8,0.3-1.3
		c0.2-1.1,0.5-2.1,0.7-3.2c0.1-0.3,0.3-0.7,0.3-1.1c0.1-1.1,0.2-2.3,0.3-3.4c0.1-0.6,0.2-1.4,0.4-2c0.3-0.7,0.5-1.5,0.4-2.3
		c-0.1-0.7-0.2-1.4-0.3-2.1c-0.1-0.1-0.1-0.3-0.1-0.4c-0.1-0.2-0.2-0.4-0.3-0.6c-0.1-0.6-0.2-1.3-0.3-1.9c-0.2-1.3-0.4-2.5-0.8-3.7
		c-0.2-0.7-0.5-1.4-0.9-2.1c-0.8-1.3-1.9-2.4-3.1-3.5c-0.5-0.4-1.4-0.3-1.8,0.3c-0.5,0.6-0.8,1.2-1.3,1.8c-0.6,0.9-1,2-1.3,3
		c-0.1,0.6-0.3,1.1-0.5,1.7c-0.5,1.2-0.8,2.4-1,3.7c-0.2,1.4-0.5,2.8-0.5,4.2c0,2.8,0.1,5.7,0.1,8.5c0,0.1,0,0.1,0,0.2
		c0.2,1.4,0.3,2.8,0.6,4.1c0.2,0.8,0.4,1.6,0.8,2.3c0.4,0.6,0.8,1.2,1.5,1.6c0.5,0.3,1,0.4,1.6,0.4c0.4,0,0.8-0.1,1.3,0.2
		c0.1,0.1,0.1,0,0.3,0c0.4,0.1,1.7-1,1.7-1.4c0-0.1,0-0.3,0-0.3C122.2,40.6,122.5,40.4,122.6,40.2z M120.9,45.5
		c-0.3-0.1-0.6-0.1-0.9,0.3c0.4-0.1,0.6-0.1,0.9-0.1C120.9,45.7,120.9,45.6,120.9,45.5z M120.3,44.3c0.6,0,1.2-0.1,1.5-0.5
		c0.3-0.3,0.6-0.5,1-0.7s0.8-0.5,1.1-0.8c0.4-0.4,0.8-0.8,1.2-1.3c0.1-0.1,0.1-0.3,0.3-0.5c-0.1,0-0.1-0.1-0.1-0.1
		c-0.1,0.1-0.3,0.1-0.5,0.3c-0.6,0.6-1.2,1.2-1.8,1.7c-0.4,0.4-0.9,0.8-1.4,1.1c-0.5,0.3-0.9,0.5-1.3,0.6
		C120.3,44.2,120.3,44.2,120.3,44.3z M123.7,44.4c0.4-0.3,0.6-0.8,1-1.2c0.7-1,0.7-1,0.7-1.3c-1,1.2-1.9,2.3-2.8,3.4
		C123.2,45.4,123.4,44.8,123.7,44.4z M129,41.7c0.3,0.4,0.3,0.5-0.1,0.7c-0.1,0.1-0.3,0.2-0.4,0.3c-0.2,0-0.4,0.2-0.5,0.1
		c-0.1-0.1-0.2-0.3-0.3-0.5c-0.3-0.1-0.6-0.1-1-0.1c0.3,0.6,0.3,1.2-0.2,1.6c-0.1,0.1-0.1,0.1-0.1,0.2c-0.3,0.5-0.6,1-1.1,1.4
		s-1,0.8-1.4,1.3c0.1,0,0.1,0.1,0.1,0.1c0.5-0.1,0.8-0.1,1.2-0.1c0.1,0.1,0.1,0.3,0.1,0.4c0.2-0.1,0.3-0.3,0.5-0.4
		c0.5-0.5,0.9-1,1.4-1.3s0.7-0.7,1-1.1c0.3-0.5,0.7-0.9,1.1-1.3c0.5-0.4,0.6-0.8,0.5-1.5c-0.2,0-0.4-0.1-0.5-0.1s-0.3,0.1-0.3,0.1
		C128.9,41.6,128.9,41.7,129,41.7z M124.6,13c0.1,0.9,0.8,1.5,1,2.3c0,0.1,0.1,0.1,0.3,0.1C125.6,14.5,125.5,13.6,124.6,13z
		 M126,35.3c-0.4,1-0.8,2-1.2,3c-0.1,0.1,0,0.1,0,0.2c0.3-0.1,0.6-0.3,0.8-0.6c0.1-0.4,0.3-0.7,0.4-1.2s0.1-1,0.5-1.4
		c0.1,0-0.1-0.2-0.1-0.4C126.2,35.1,126,35.2,126,35.3z M125.9,39.5c0.3,0,0.3-0.3,0.4-0.5c-0.3,0.1-0.4,0.3-0.6,0.3
		C125.8,39.3,125.8,39.4,125.9,39.5z M126.1,45.5c0.3-0.1,0.4-0.4,0.4-0.6c0.1-0.5,0.1-0.6,0.7-0.5c0,0.5-0.6,0.6-0.7,1
		s-0.6,0.5-0.7,0.8C125.7,45.8,125.8,45.5,126.1,45.5z M125.8,15.7c0.1,0.2,0.1,0.4,0.2,0.6c0.1-0.1,0.1-0.1,0.1-0.1
		c0-0.2-0.1-0.4-0.1-0.6C126,15.6,125.9,15.7,125.8,15.7z M126.1,16.5c0.1,0.3,0.1,0.6,0.3,0.9C126.5,16.8,126.4,16.6,126.1,16.5z
		 M126.1,34.6c0.2,0,0.3,0.1,0.4,0.1c0-0.2-0.1-0.3-0.1-0.6C126.2,34.3,126.2,34.4,126.1,34.6z M126.5,33.5c0.1-0.1,0.1-0.2,0.1-0.3
		C126.3,33.3,126.3,33.3,126.5,33.5z M126.6,18.9c0.1,0.5,0.1,0.8,0.2,1.3c0.1,0.3-0.1,0.8,0.3,1.1c0.2-0.1,0.3-0.3,0.3-0.5
		c-0.2-0.8-0.3-1.6-0.5-2.4c-0.1-0.3-0.2-0.5-0.4-0.8C126.2,18.3,126.6,18.6,126.6,18.9z M127.3,28.4c0.3-0.3,0.2-0.6,0.1-1
		C127.2,27.7,127.1,28,127.3,28.4z M128,41.1c-0.1,0-0.2,0-0.3,0c0,0.1,0,0.2,0,0.2c0.1,0,0.2,0,0.3-0.1C128,41.3,128,41.2,128,41.1
		z M127.9,43.4c-0.1,0-0.1-0.1-0.1-0.1c0.1-0.1,0.1-0.3,0.2-0.4c0.1,0.1,0.1,0.1,0.1,0.1C128,43.1,128,43.3,127.9,43.4z M128,39.8
		c0.4,0.1,0.5-0.1,0.6-0.5c-0.3-0.1-0.5-0.1-0.8-0.1C127.8,39.5,127.8,39.7,128,39.8z M128.9,14.6c-0.2,0.4-0.1,0.7,0,1
		c0.1,0.3,0.2,0.5,0.3,0.8c0.1,0.4,0.1,0.7,0.1,1c0.2,0.7,0.4,1.4,0.5,2.1c0.1,0.6,0.3,1.2,0.3,1.7c0,0.5-0.1,0.9,0,1.4
		c0.1,0.5,0.1,1,0.1,1.4s0.3,0.7,0.6,1C131.2,23.2,129.8,15.7,128.9,14.6z M129.3,38.4c-0.3,0.2-0.2,0.5-0.1,0.6
		c0.3,0.5,0.8,0.8,1.5,0.9C130.2,39.3,129.8,38.8,129.3,38.4z M129.9,29.2c0,0.8-0.1,1.5-0.2,2.3c-0.1,1-0.3,2.1-0.5,3.1
		c0,0.1,0.1,0.2,0.2,0.5c0.1-0.2,0.2-0.3,0.2-0.4c0.1-0.4,0.2-0.8,0.3-1.2c0.1-0.8,0.3-1.5,0.4-2.3s0.1-1.5,0.1-2.3
		c0-0.3,0-0.6,0.1-1c0-0.3,0-0.5,0-0.8s-0.1-0.5,0.3-0.6c0.1,0,0.1-0.1,0.1-0.3c0.1-0.1,0-0.1,0-0.2c-0.2,0-0.3,0-0.6,0
		C130.1,27.2,129.9,28.2,129.9,29.2z M130.1,40.7c0.1,0,0.2-0.1,0.4-0.1c-0.4-0.4-0.7-0.6-1.3-0.8C129.3,40.4,129.8,40.4,130.1,40.7
		z M132.2,35.9c-0.2,0.2-0.3,0.3-0.5,0.5C132.2,36.4,132.2,36.2,132.2,35.9z M131.8,37.4c0.3-0.3,0.3-0.3-0.1-0.5
		C131.8,37.1,131.8,37.2,131.8,37.4z M132.5,34.7c-0.1,0.1-0.1,0.2-0.2,0.3c0.1,0.1,0.1,0.1,0.1,0.1c0.1-0.1,0.1-0.2,0.2-0.3
		C132.6,34.8,132.5,34.7,132.5,34.7z M132.6,32.8c0.3-0.1,0.3-0.3,0.1-0.6C132.4,32.4,132.4,32.6,132.6,32.8z M132.5,34.1
		c0.1-0.2,0.1-0.5,0.1-0.7C132.4,33.8,132.4,33.8,132.5,34.1z M132.6,24.4c-0.1,0.1-0.1,0.1-0.1,0.2c0,0,0.1,0.1,0.1,0.1
		c0.1-0.1,0.1-0.1,0.3-0.1C132.7,24.5,132.6,24.4,132.6,24.4z"/>
	<path id="XMLID_105_" class="st0" d="M149.4,13.7c-0.1,0.6-0.1,1.3-0.1,1.9c-0.1,0.9-0.1,1.8-0.3,2.7c-0.3,1.8-0.7,3.7-1,5.5
		c-0.1,0.8-0.1,1.5-0.1,2.3c0,0.6-0.1,1.2,0.1,1.7c0,0.1,0,0.1,0,0.1c-0.3,1.3,0.1,2.5,0.1,3.7c0,0.8,0,1.7,0,2.5c0,0.5,0.1,1,0,1.5
		s-0.4,1-0.8,1.3c-0.3,0.2-0.6,0.4-1,0.6c-0.3,0.1-0.6,0.2-0.8,0.1c-1-0.3-1.9-0.7-2.9-1c-0.3-0.1-0.6-0.1-0.9-0.2
		c-0.3-0.1-0.5-0.1-0.6-0.5c-0.1-0.2-0.2-0.5-0.4-0.6c-0.5-0.5-0.5-1.1-0.6-1.7c0-0.8,0-1.7-0.1-2.5c-0.1-1.1,0-2.1,0-3.2
		c0-0.8-0.1-1.5-0.1-2.3c0-0.9,0.1-1.8,0.2-2.6c0.1-1.2,0.3-2.3,0.5-3.4c0.1-0.6,0.2-1.3,0.4-1.9c0.1-0.8,0.4-1.5,0.5-2.3
		c0.1-0.8,0.3-1.5,0.3-2.3c0.1-1.5,0.1-3,0.2-4.5c0.1-0.6,0.2-1.1,0.3-1.7c0.1-0.8,0.3-1.6,0.5-2.4c0.5-1.9,2.4-2.8,4.3-1.9
		c0.5,0.3,0.9,0.8,1.2,1.3c0.4,0.7,0.7,1.5,1,2.2c0.5,0.9,0.4,1.9,0.5,2.8c0.1,0.4,0,0.7,0,1.1C149.7,11.2,149.6,12.5,149.4,13.7z
		 M142.1,43.8c0.1-0.1,0.3-0.1,0.5-0.1c-0.5-0.8-0.5-1,0.1-1.7c0.1-0.1,0.1-0.2,0.2-0.2c0.4-0.1,0.4-0.4,0.6-0.7
		c0.5,0.3,1.2,0,1.7,0.5c0.1,0.1,0.3,0.1,0.5,0.1c1-0.1,1.8,0.5,2.5,1.1c0.7,0.5,0.9,1.4,1.2,2.2c0.2,0.5,0.3,1,0.2,1.5
		c-0.1,0.4-0.2,0.8-0.3,1.2c-0.1,0.2-0.1,0.5-0.2,0.6c-0.3,0.8-0.8,1-1.5,1c-0.5,0.1-0.9,0.1-1.3,0.1c-0.1,0-0.3-0.1-0.4-0.1
		c-0.5-0.1-1-0.3-1.5-0.5c-0.1,0-0.2-0.1-0.3-0.1c-0.7,0.3-1.2-0.2-1.9-0.4c-0.5-0.2-0.9-0.9-0.7-1.5s0.1-1.1,0.5-1.6
		c0.1-0.1-0.1-0.4-0.1-0.5C141.8,44.5,142,44.2,142.1,43.8z M142.2,25.8c0-0.3,0-0.5-0.1-0.8H142c0,0.3,0,0.5,0,0.8
		C142.1,25.9,142.2,25.8,142.2,25.8z M145.6,18.8c0.1-1.4,0.2-2.8,0.5-4.2c0.1-0.5,0.1-0.9,0.1-1.4c0.1-0.3-0.1-0.5-0.3-0.5
		c-0.2,0.8-0.4,1.7-0.5,2.4c-0.1,0.6-0.3,1.3-0.2,1.9c0,0.6,0,1.2-0.1,1.8c0,0.2,0.1,0.3,0.1,0.5c0,0.3,0,0.5-0.1,0.8
		c0,0.4-0.1,0.7,0.3,1.1C145.4,20.4,145.5,19.6,145.6,18.8z M146.1,9.9c-0.1,0.5-0.1,1-0.1,1.5C146.3,11,146.3,10.5,146.1,9.9z"/>
</g>
</svg>
